<?xml version="1.0" encoding="UTF-8" standalone="no"?>
<svg
   width="997"
   height="1008"
   viewBox="0 0 997 1008"
   version="1.1"
   id="svg4"
   sodipodi:docname="icono.svg"
   inkscape:version="1.4 (86a8ad7, 2024-10-11)"
   xmlns:inkscape="http://www.inkscape.org/namespaces/inkscape"
   xmlns:sodipodi="http://sodipodi.sourceforge.net/DTD/sodipodi-0.dtd"
   xmlns="http://www.w3.org/2000/svg"
   xmlns:svg="http://www.w3.org/2000/svg">
  <defs
     id="defs4" />
  <sodipodi:namedview
     id="namedview4"
     pagecolor="#ffffff"
     bordercolor="#000000"
     borderopacity="0.25"
     inkscape:showpageshadow="2"
     inkscape:pageopacity="0.0"
     inkscape:pagecheckerboard="0"
     inkscape:deskcolor="#d1d1d1"
     inkscape:zoom="0.70710678"
     inkscape:cx="237.58788"
     inkscape:cy="463.15494"
     inkscape:window-width="1920"
     inkscape:window-height="1094"
     inkscape:window-x="-11"
     inkscape:window-y="-11"
     inkscape:window-maximized="1"
     inkscape:current-layer="svg4" />
  <path
     d="m 412.63477,535.31055 c -24.93052,28.82694 -50.52941,57.06647 -75.53763,85.82549 -12.19998,13.9929 -24.49772,27.9007 -36.70652,41.88544 -4.90322,5.78799 -9.27048,12.15554 -11.85564,19.33584 -2.94863,7.06 -4.05217,14.77205 -3.82718,22.39065 0.0513,11.31769 3.38347,22.72905 10.20066,31.8426 4.75117,6.55916 11.14506,11.72748 18.01799,15.92319 2.63691,1.7181 5.5347,3.11125 8.64096,3.6875 1.44367,0.80408 2.91885,1.53405 4.56952,1.79065 8.70489,2.20106 17.76024,1.64922 26.64899,2.12765 40.86643,-0.0273 81.7357,0.23671 122.59977,-0.28046 3.93525,-0.10363 7.86958,-0.23671 11.80376,-0.37426 0.63626,-1.13644 1.94074,-0.81999 2.70654,-0.19186 2.69808,0.41228 5.44812,0.13788 8.16729,0.31802 31.62689,0.61854 63.26136,0.28763 94.8919,0.37327 l 12.54482,-0.003 c -7.34285,-6.00903 -14.82539,-12.39598 -19.2587,-20.95343 -0.86512,-2.53656 -1.76722,-5.09785 -3.24265,-7.34252 -1.28026,-3.38353 -1.84427,-6.98537 -2.69351,-10.48875 -1.39427,-8.05236 -1.09163,-16.37157 0.52251,-24.36617 1.70961,-7.27693 4.70587,-14.32425 9.11365,-20.37989 4.25169,-5.53335 9.64015,-10.02233 14.5587,-14.93018 -57.08561,-0.10713 -114.17414,0.0354 -171.25677,-0.59889 -0.72943,-0.14796 -2.38796,0.29998 -1.86237,-0.96947 0.6624,-1.59542 2.01599,-2.79367 3.00532,-4.19209 6.61233,-8.06803 13.70299,-15.72883 20.53129,-23.61311 4.97444,-5.47786 9.91365,-10.98978 14.5819,-16.73264 5.46104,-6.27117 11.40136,-12.13184 16.43429,-18.76845 2.47649,-2.98788 5.32592,-5.70056 7.4179,-8.98473 0.21177,-1.25639 -1.5678,-1.08511 -2.38154,-1.22843 -7.69232,-1.0287 -15.46996,-2.04412 -22.84126,-4.56463 -3.49265,-1.12197 -6.49683,-3.4244 -10.04302,-4.37084 -1.54958,-0.47855 -2.86991,0.55928 -4.28886,0.92758 -0.90765,0.27788 -1.92776,-0.866 -1.0046,-1.56384 0.56237,-0.59266 2.02321,-0.78188 1.48116,-1.88343 -1.60092,-2.6964 -5.0595,-3.24684 -6.98535,-5.62335 -5.86976,-5.53901 -11.17686,-11.67541 -15.96355,-18.16584 -0.99027,-1.43121 -1.6099,-3.15945 -2.79329,-4.42761 -1.64123,-1.07799 -3.49552,0.52172 -5.19336,0.0762 -0.87895,-0.92642 0.75017,-1.70166 1.57676,-1.69099 0.73154,-0.17838 2.02949,0.076 2.34917,-0.72033 -0.14278,-2.6361 -1.84461,-4.84605 -2.46004,-7.37279 -0.69028,-1.98857 -0.82807,-4.12232 -1.31304,-6.14179 -0.70701,-1.6672 -1.92399,-3.24625 -3.66457,-3.90418 -2.39713,2.77474 -4.79427,5.54948 -7.1914,8.32422 z m 2.74414,8.21093 c 1.32945,0.27155 2.93107,0.95316 3.19336,2.44727 -1.37327,1.14464 -3.24742,-0.2134 -4.0586,-1.40039 -0.16581,-0.53282 0.26326,-1.19998 0.86524,-1.04688 z m 33.14843,28.83985 c 1.56158,-0.0667 1.17043,2.58436 -0.22851,2.27734 -1.30293,-0.23837 -1.07235,-2.34201 0.22851,-2.27734 z m -7,4.21484 c 1.5173,0.54632 1.89843,3.15899 0.25391,3.78516 -1.75258,-0.24837 -2.74596,-1.88977 -3.68164,-3.21094 0.99178,-0.70132 2.27342,-0.65252 3.42773,-0.57422 z m 41.55469,12.07617 c 0.99479,0.92669 -0.26234,2.43942 -1.22461,2.82422 -0.9852,0.28644 -1.87584,-0.93383 -1.04492,-1.6914 0.4516,-0.69901 1.39424,-1.57586 2.26953,-1.13282 z m -25,4 c 0.99479,0.92669 -0.26234,2.43942 -1.22461,2.82422 -0.9852,0.28644 -1.87584,-0.93383 -1.04492,-1.6914 0.4516,-0.69901 1.39424,-1.57586 2.26953,-1.13282 z M 329.4707,639.14453 c 1.50187,0.17874 2.98704,1.88209 2.20118,3.38672 -1.71618,1.3841 -4.44572,-1.37551 -3.19727,-3.08594 0.24638,-0.28608 0.63673,-0.36862 0.99609,-0.30078 z m 5.13086,6.61133 c 1.77917,-0.0835 2.28143,2.83375 0.66406,3.45312 -0.0536,1.04766 0.11562,2.27169 -0.7871,3.01563 -0.42718,0.33755 -1.29252,0.84359 -0.21798,0.92638 0.85871,0.35341 1.65026,0.87901 2.29219,1.55213 0.64111,-1.59581 3.04589,-1.38058 3.8216,-0.0103 1.35501,1.28609 1.68201,4.03471 -0.24888,4.96259 -1.26111,0.90462 -3.43346,1.4672 -4.48287,-0.0402 0.11437,-0.88955 -0.73556,-1.09229 -1.40039,-1.13085 -0.34172,-0.25221 -1.11325,-0.8658 -1.11914,-0.0254 -0.81859,0.71005 -0.53654,1.78832 -0.58594,2.71094 -0.41967,1.66592 -2.90275,1.94141 -3.72461,0.44336 -0.63864,-0.89366 -0.33253,-2.16873 0.56464,-2.7488 1.05712,-1.50643 -0.62142,-3.04793 -0.90448,-4.51096 0.0347,-1.22633 1.47075,-1.54403 2.45703,-1.50586 0.36967,-0.44748 -0.4307,-1.12329 -0.0506,-1.71084 0.27901,-1.39991 2.30554,-1.90409 1.89629,-3.5001 -0.22079,-1.11718 0.81032,-1.86421 1.82617,-1.88086 z m -17.66211,1.43359 c 1.39436,0.43343 0.93713,2.45704 -0.11718,3.02149 -0.68236,1.04873 -2.9599,0.72174 -2.58985,-0.76563 0.26033,-1.23628 1.42577,-2.26 2.70703,-2.25586 z m 30.47852,14.78125 c 1.58283,-0.16394 2.86398,1.46121 2.64062,2.96485 2.49287,-0.30423 5.65675,0.2803 6.74805,2.8457 0.074,0.70875 0.27144,1.50384 1.05345,1.67258 1.4357,1.20058 0.88462,3.42387 -0.31174,4.58352 -1.13326,1.696 -3.08588,3.58919 -5.30515,2.97022 -2.21146,-0.96153 -2.10142,-4.26457 -0.45414,-5.70874 0.54255,-1.10464 -1.16916,-1.38324 -1.91513,-1.20905 -1.60513,0.30325 -3.4707,1.77049 -4.98271,0.40426 -1.56915,-1.03462 -1.80478,-4.08646 0.2494,-4.67959 0.31444,-0.57268 -0.55516,-1.26353 -0.0898,-1.88567 0.2443,-1.06803 1.26532,-1.93208 2.36716,-1.95808 z m 13.65625,11.72266 c 2.21621,0.49329 5.13593,0.43382 6.35156,2.73828 0.35773,0.81395 0.26577,1.75891 -0.0664,2.56445 0.94935,0.82324 1.42717,2.02032 1.94335,3.13282 1.78768,-1.12379 4.32566,0.54216 4.08204,2.62695 -0.0668,1.13953 1.25693,0.91639 1.76265,1.63121 0.65019,0.90089 1.61396,-0.10977 2.47482,0.0803 1.81891,-0.0574 3.73223,1.1858 3.92018,3.09528 0.49636,1.70967 1.8143,3.28739 1.47711,5.16 1.65586,-0.11993 2.80706,1.28157 4.07031,2.11132 1.65457,-0.53876 4.08723,0.27301 4.02539,2.31055 -0.0123,2.92178 -3.60129,4.57608 -6.10184,3.51073 -1.42733,-0.40828 -2.42131,-1.8627 -3.92941,-1.95799 -1.15228,0.27113 -2.19029,1.25946 -3.4375,0.8164 -1.92629,-0.49964 -2.12444,-2.85176 -1.97833,-4.50791 0.029,-0.73419 0.63335,-1.62656 -0.4951,-1.56382 -1.54437,-0.41588 -2.55873,-1.86171 -2.76485,-3.38335 -0.70019,-1.42917 -2.25339,-2.08156 -3.53928,-2.76087 -0.65558,-0.91174 -1.23207,0.54408 -1.78171,0.86411 -1.47638,1.21458 -4.00425,0.46007 -4.41338,-1.46261 -0.52407,-1.50661 0.3435,-3.10917 0.31767,-4.53692 -0.67121,-0.8953 -1.84454,-1.71423 -1.60088,-2.99628 -0.0946,-0.73649 -0.83567,0.21395 -1.17968,0.2871 -2.18191,1.12784 -5.3199,-0.87895 -4.72043,-3.4129 0.31465,-2.62439 3.04969,-4.46972 5.58371,-4.34686 z m 82.51953,11.49023 c 1.62464,0.47306 0.99652,3.28512 -0.72852,2.91602 -1.26239,-0.0972 -2.20814,-2.07675 -0.79687,-2.70313 0.4678,-0.21151 1.01886,-0.29158 1.52539,-0.21289 z m 3.06055,2.04883 c 1.56762,0.55789 0.80188,3.32701 -0.89844,2.82031 -1.2134,-0.18368 -1.99852,-2.08509 -0.62305,-2.64843 0.46987,-0.19518 1.02145,-0.26909 1.52149,-0.17188 z m -4.89063,1.03711 c 1.36039,0.3122 1.02489,2.72717 -0.43164,2.47266 -1.41765,-0.18403 -1.30903,-2.5988 0.20117,-2.49024 l 0.18228,0.0139 z m 6.0625,3.33008 c 1.48104,1.11933 2.183,3.27027 1.41406,5.00195 1.0289,-0.14949 2.41441,-0.0833 2.65297,1.17212 1.13532,2.49816 0.76996,5.83291 -1.17836,7.80054 -1.2727,0.3775 -1.37877,-1.28718 -1.20901,-2.14764 -0.017,-0.52051 0.31461,-2.0466 -0.50778,-1.7508 -1.02268,0.22977 -2.1234,-1.00098 -1.23828,-1.86523 0.64249,-0.45325 2.45566,-1.55988 0.57789,-1.46165 -2.39174,0.2344 -5.16609,0.24587 -7.01344,-1.54421 -0.85338,-0.58159 0.33495,-1.36593 0.9375,-1.48242 1.53904,-0.38762 3.03759,0.37069 4.21094,1.3125 0.79765,-1.08938 -0.31463,-2.39801 0.007,-3.60192 -0.12787,-0.71782 0.42377,-2.1876 1.34629,-1.43324 z m -5.02929,-0.14453 c 0.72706,-0.10147 2.23848,0.52597 1.5,1.38476 -1.80469,2.25026 -4.74685,3.26396 -7.4961,3.76758 -0.95615,0.24332 -1.96351,-0.74068 -1.34961,-1.65039 1.60986,-2.33298 4.54434,-3.61803 7.34571,-3.50195 z m 12.70898,11.07226 c 1.76016,0.92933 0.97553,3.36604 -0.11328,4.52539 -0.49367,1.32787 1.43865,-0.17264 1.91015,0.68946 0.98016,0.82728 -0.0431,2.12072 -1.0957,1.46289 -1.65028,-0.50265 -3.16907,-2.54509 -2.10537,-4.19266 0.46856,-0.77037 0.23982,-2.18186 1.20889,-2.50461 l 0.1819,0.0182 z m 5.27734,4.71289 c 0.41769,0.65703 0.77668,2.23804 1.83789,1.47657 1.21402,-0.006 0.99986,1.76336 0.0625,2.08203 -0.73016,1.05235 1.33016,1.0166 1.62696,1.83984 2.0237,2.50873 2.99708,5.65756 4.78388,8.32434 0.85673,1.6397 2.23258,3.25138 2.23565,5.16785 -0.46116,0.92733 -0.0763,2.24188 1.13772,1.54606 0.82782,-0.3353 1.91267,-0.0799 2.02957,0.93036 1.02624,2.53274 1.84944,5.15718 2.62177,7.76186 0.86111,1.05387 2.76049,-0.29379 3.37109,1.13086 -0.0828,1.29651 1.45185,2.2794 0.92383,3.60547 -1.58585,1.11008 -3.05867,-1.16336 -4.70898,-0.58985 -1.28194,-0.0982 -2.94039,-0.79576 -3.17188,-2.17968 0.1846,-0.58818 1.74582,-2.07043 0.29102,-1.83203 -2.58475,0.0513 -4.78754,-2.43548 -4.83008,-4.95508 -0.38862,-3.3311 -3.28284,-5.54359 -5.59875,-7.65097 -1.35381,-0.71204 0.47445,-1.50269 1.24729,-1.53935 0.8054,-0.42608 1.82429,-0.57384 2.52334,-1.11242 -1.1316,-0.47991 -2.54791,-0.5831 -3.61879,-1.35719 -2.33847,-1.41041 -3.65365,-3.9585 -4.8402,-6.32054 -0.44618,-1.26925 -0.99552,-2.90113 -0.25195,-4.12109 0.64251,-0.69453 1.64613,-1.18821 1.83203,-2.19922 0.15844,-0.0751 0.33196,-0.0257 0.49609,-0.008 z m -4.25586,4.1211 c 1.56158,-0.0667 1.17043,2.58436 -0.22851,2.27734 -1.30293,-0.23837 -1.07235,-2.34201 0.22851,-2.27734 z m 22.82032,30.92969 c 2.09794,0.2341 2.29336,4.14974 0.006,4.11077 -1.74875,-0.25467 -2.95238,-3.14384 -0.97642,-3.9645 0.29751,-0.14995 0.64403,-0.16413 0.97054,-0.14627 z m 4.01953,6.83007 c 1.51096,1.41278 1.0499,3.77188 0.99144,5.62928 -0.0451,0.79603 -0.39983,2.4239 -1.51097,1.73986 -0.82328,-0.72347 -0.0883,-2.06617 -1.11109,-2.71188 -1.13086,-0.87144 -2.90001,-2.08321 -2.22095,-3.74905 0.55827,-1.13819 1.86906,-0.25963 2.47242,0.35531 1.4121,0.8655 0.34814,-1.4201 1.37915,-1.26352 z"
     fill="#1a2661"
     id="path1"
     style="fill:#1a2661;fill-opacity:1"
     sodipodi:nodetypes="ccccccccccccccccccccccccccccccccccccccccccccccccccccccccccccccccccccccccccccccccccccccccccccccccccccccccccccccccccccccccccccccccccccccccccccccccccccccccccccccccccccccccccccccccccccccccccccccccccccccccccc" />
  <path
     d="m 579.3,485.5 c -6.47,7.8 -7.81,8.92 -8.05,6.69 -1.03,-9.62 -6.81,-23.36 -13.01,-30.94 -1.92,-2.34 -3.17,-4.25 -2.79,-4.25 1.23,0 -10.75,-10.08 -13.45,-11.32 -0.83,-0.38 -3.3,-1.82 -5.5,-3.19 -5.08,-3.17 -10.43,-5.62 -13,-5.97 -1.1,-0.14 -2,-0.36 -2,-0.47 0,-0.11 -0.67,-0.38 -1.5,-0.59 -0.83,-0.21 -3.3,-0.84 -5.5,-1.4 -2.2,-0.56 -6.62,-1.02 -9.82,-1.04 l -5.83,-0.02 2.17,-2.75 c 2.34,-2.98 27.01,-30.65 38.72,-43.41 3.98,-4.35 9.38,-10.47 12,-13.62 2.62,-3.15 5.66,-6.64 6.76,-7.76 1.1,-1.12 5.38,-5.84 9.5,-10.49 4.12,-4.65 10.44,-11.6 14.04,-15.46 6.24,-6.7 10.05,-10.98 28.78,-32.36 l 8.33,-9.5 -13.45,-13.07 c -7.4,-7.2 -14.4,-13.86 -15.57,-14.82 -1.17,-0.96 -2.13,-2.19 -2.13,-2.75 0,-0.67 22.08,-1.01 65.5,-1.01 H 719 v 62.88 c 0,34.58 0.28,64.28 0.62,66 0.37,1.82 0.22,3.12 -0.37,3.12 -0.54,0 -7.91,-7.65 -16.37,-17 -8.45,-9.35 -15.6,-16.99 -15.88,-16.99 -0.27,0.01 -4.1,4.13 -8.5,9.15 -13.66,15.61 -18.62,21.2 -22.47,25.34 -2.04,2.2 -7.88,8.73 -12.98,14.5 -5.1,5.77 -10.49,11.85 -11.97,13.5 -1.48,1.65 -9.37,10.65 -17.52,20 -8.15,9.35 -18.08,20.6 -22.05,25 -3.98,4.4 -9.47,10.7 -12.21,14 z m 68.63534,32.42795 c -0.01,0.96 0.01,-1.59 0,0 z M 567.39,450.97 c 1.2,0.46 2.64,0.37 3.35,-0.2 1.52,-1.23 0.69,-2.87 -1.11,-2.18 -0.72,0.28 -1.88,-0.19 -2.58,-1.03 -0.7,-0.85 -1.66,-1.3 -2.12,-1.02 -1.35,0.84 0.16,3.56 2.46,4.43 z m -14.82,-18.86 c 0.35,0.56 0.85,0.81 1.11,0.54 0.69,-0.69 0.45,-1.63 -0.43,-1.74 -0.41,-0.04 -1.29,-0.53 -1.96,-1.08 -0.66,-0.55 -1.68,-0.71 -2.26,-0.35 -1.48,0.92 -0.13,2.77 1.54,2.13 0.75,-0.29 1.65,-0.06 2,0.5 z"
     fill="#53b2d4"
     id="path2"
     style="fill:#1a2661;fill-opacity:1"
     sodipodi:nodetypes="cccscccsssccccsssccccssscscsccccsssccccccccccscccccs" />
  <path
     d="m 553.58,371.03 c 1.54,-1.9 2.42,-3.12 2.42,-3.4 0,-0.35 -48.89,-0.63 -108.65,-0.62 -59.76,0.01 -108.85,-0.18 -109.09,-0.42 -0.24,-0.24 2.64,-2.69 6.4,-5.45 14.96,-10.96 21.56,-25.3 21.72,-47.14 0.07,-10.29 -0.2,-12.15 -2.54,-17.66 -5.51,-12.93 -13.36,-22.65 -23.46,-29.03 -1.46,-0.92 40.79,-1.2 188.37,-1.25 l 102.89,-0.03 c -28.96,0.11 -43.64,0.43 -43.64,0.98 0,0.56 0.96,1.79 2.13,2.75 1.17,0.96 8.17,7.62 15.57,14.82 l 13.45,13.07 -8.33,9.5 c -18.73,21.38 -22.54,25.66 -28.78,32.36 -3.6,3.86 -9.92,10.81 -14.04,15.46 -4.12,4.65 -8.4,9.37 -9.5,10.49 -0.85,0.87 -2.85,3.14 -4.92,5.57 z m -39.81,198.38 c -13.7,4.48 -37.94,0.82 -51.59,-7.79 -9.1,-5.75 -20.16,-19.66 -23.78,-29.9 -5.4,-15.3 -3.11,-36.93 5.57,-52.6 8.19,-14.81 18.42,-22.2 40.14,-29.01 3.94,-1.24 18.19,-1.78 21.39,-0.81 1.1,0.33 4.02,0.88 6.5,1.22 2.47,0.34 5.5,1.26 6.71,2.05 1.22,0.79 2.86,1.43 3.64,1.43 1.97,0 11.27,6.41 16.49,11.37 5.82,5.52 14.9,19.16 15.74,23.63 0.05,0.27 0.35,1.17 0.67,2 4.31,11.26 3.54,29.78 -1.78,42.89 -2.62,6.43 -6.86,13.82 -8.98,15.61 -0.65,0.55 -2.18,2.46 -3.4,4.25 -1.23,1.79 -2.68,3.25 -3.22,3.25 -0.55,0 -2.44,1.08 -4.19,2.39 -3.99,2.99 -14.29,8.18 -19.91,10.02 z m 144.59,187 c -5.93,2.04 -18.26,2.83 -24.36,1.57 -9.46,-1.96 -29.18,-14.26 -27.42,-17.1 0.3,-0.49 -0.16,-1.16 -1.02,-1.49 -0.86,-0.33 -1.56,-1.18 -1.56,-1.87 0,-0.7 -0.71,-1.87 -1.58,-2.59 -0.95,-0.78 -1.4,-2.27 -1.12,-3.7 0.26,-1.38 -0.08,-2.59 -0.82,-2.88 -3.19,-1.22 -4.75,-19.1 -2.52,-28.85 4.09,-17.85 19.27,-32.25 37.54,-35.6 9.71,-1.79 22.32,0.34 30.5,5.14 9.87,5.8 15.94,12.37 20.29,21.96 5.62,12.38 5.53,29.12 -0.23,40.72 -5.72,11.53 -15.96,20.65 -27.7,24.69 z M 507.57,550.52 c 6.97,-1.81 13.91,-5.68 18.07,-10.07 9.13,-9.64 14.35,-27.19 11.41,-38.33 -0.53,-1.99 -1.19,-4.74 -1.46,-6.12 -0.28,-1.38 -2.22,-5.33 -4.31,-8.79 -3.03,-5.01 -5.32,-7.3 -11.29,-11.29 -4.12,-2.75 -8.61,-5.23 -9.99,-5.51 -1.38,-0.28 -4.14,-0.99 -6.15,-1.59 -3.47,-1.02 -11.26,-0.7 -18.79,0.79 -4.81,0.94 -14,6.54 -18.72,11.4 -8.47,8.72 -13.61,24.61 -11.32,34.99 2.89,13.13 5.6,18.55 12.42,24.84 10.72,9.88 25.6,13.47 40.13,9.68 z m 104.98,196.57 c 0.32,0.52 1.12,0.6 1.77,0.19 0.65,-0.41 1.52,-0.81 1.93,-0.89 0.41,-0.08 1,-0.2 1.31,-0.27 0.31,-0.06 0.27,-0.59 -0.09,-1.17 -0.44,-0.72 -1.09,-0.68 -2.06,0.12 -0.78,0.65 -1.41,0.87 -1.41,0.49 0,-0.37 -0.46,-0.4 -1.02,-0.05 -0.56,0.35 -0.75,1.05 -0.43,1.58 z M 604.62,296.2 c 0.32,0.51 1.42,0.17 2.46,-0.77 1.03,-0.93 1.61,-2.12 1.3,-2.63 -0.32,-0.51 -1.42,-0.17 -2.46,0.77 -1.03,0.93 -1.61,2.12 -1.3,2.63 z m -4.07,430.89 c 0.32,0.52 1.01,0.68 1.54,0.36 0.52,-0.32 0.68,-1.01 0.36,-1.54 -0.32,-0.52 -1.01,-0.68 -1.54,-0.36 -0.52,0.32 -0.68,1.01 -0.36,1.54 z M 539.74,386.84 c -5.99,6.53 -15.37,16.95 -23.42,25.98 7.92,-8.87 17.12,-19.12 23.18,-25.74 1.91,-2.09 3.73,-4.1 5.41,-5.99 -1.77,2 -3.59,4.02 -5.17,5.75 z"
     fill="#e2af58"
     id="path3"
     style="fill:#1a2661;fill-opacity:1"
     sodipodi:nodetypes="csssccccccssccccsccccccccccsccccccscccccsscccccccccccccccscccccccsscccsscccccccccccccccc" />
  <path
     style="fill:#1a2661;fill-opacity:1;stroke-width:0.876708"
     d="m 383.27708,701.26067 c -0.87876,-0.51104 -2.53968,-0.69274 -3.69093,-0.4038 -1.54591,0.388 -2.34218,0.0601 -3.04552,-1.25407 -0.52378,-0.97869 -0.72831,-2.1419 -0.45451,-2.58492 0.2738,-0.44301 -1.30708,-2.66257 -3.51305,-4.93235 -3.01591,-3.10314 -4.26025,-3.8775 -5.01615,-3.12159 -0.55291,0.55291 -1.71542,1.00529 -2.58336,1.00529 -1.23413,0 -1.58416,-0.71657 -1.60596,-3.28766 -0.0345,-4.06278 -1.68267,-6.43245 -4.04448,-5.81482 -2.34254,0.61258 -3.8147,-1.3324 -2.87829,-3.80274 1.65954,-4.37804 9.43885,-3.36968 10.67043,1.38311 0.44587,1.72068 1.51513,3.12211 2.73636,3.58642 1.10248,0.41917 2.65758,1.75883 3.45577,2.97702 0.94703,1.44535 2.42083,2.3108 4.2418,2.4909 2.38593,0.23598 2.98301,0.80613 4.11795,3.93224 1.27176,3.50301 3.773,5.54919 6.78329,5.54919 1.80092,0 2.54513,2.38018 1.23703,3.95635 -1.25473,1.51185 -4.1166,1.65535 -6.41038,0.32143 z"
     id="path16" />
  <path
     style="fill:#1a2661;fill-opacity:1;stroke-width:0.109589"
     d="m 352.03576,676.82327 c -0.95021,-0.51847 -1.48386,-1.66649 -1.37492,-2.95783 0.073,-0.86504 0.34726,-1.53933 0.88969,-2.18724 0.74643,-0.89158 0.35408,-1.54951 -0.97447,-1.6341 -0.61681,-0.0393 -0.90332,0.0198 -2.23433,0.46063 -0.83973,0.27813 -1.70595,0.50569 -1.92493,0.50569 -1.65565,0 -3.1234,-2.14296 -2.58504,-3.77423 0.16951,-0.51363 0.66773,-1.0886 1.09755,-1.26664 0.37845,-0.15675 0.40614,-0.34181 0.16839,-1.12533 -0.14684,-0.48393 -0.14214,-0.56058 0.0638,-1.04097 0.12226,-0.28522 0.34069,-0.67381 0.4854,-0.86354 0.36304,-0.47597 1.28241,-0.91616 1.90718,-0.91315 1.2743,0.006 2.40834,1.14877 2.43452,2.45291 l 0.009,0.47001 1.21931,0.002 c 1.97502,0.003 3.36702,0.44688 4.44865,1.41936 0.65822,0.5918 1.04958,1.22822 1.15395,1.87656 0.0826,0.51313 0.494,1.08347 0.89016,1.23409 0.1385,0.0527 0.38823,0.30186 0.55495,0.55379 0.62999,0.95199 0.42317,2.50089 -0.48387,3.6237 -0.22718,0.28121 -0.64853,0.81118 -0.93635,1.1777 -0.59619,0.75924 -1.40226,1.43203 -2.20992,1.84453 -0.76429,0.39034 -2.01872,0.45905 -2.59913,0.14235 z"
     id="path17" />
  <path
     style="fill:#1a2661;fill-opacity:1"
     d="m 330.00292,662.46858 c -0.54056,-0.17168 -0.98547,-0.57984 -1.24902,-1.14584 -0.14312,-0.30737 -0.26042,-0.63282 -0.26067,-0.72323 -10e-4,-0.43644 0.2664,-1.02037 0.66216,-1.44478 0.49446,-0.53026 0.69361,-1.10682 0.5898,-1.70752 -0.0389,-0.22513 -0.31733,-0.94685 -0.61871,-1.60381 -0.68381,-1.49059 -0.70913,-1.82742 -0.17423,-2.31762 0.42428,-0.38883 0.99371,-0.59588 1.64149,-0.59686 0.50172,-7.6e-4 0.58148,-0.19433 0.36937,-0.89646 -0.218,-0.72164 -0.0605,-1.13759 0.80939,-2.13746 1.09185,-1.255 1.10785,-1.28758 1.07573,-2.19103 -0.0332,-0.93487 0.14567,-1.26111 0.90998,-1.65941 0.88738,-0.46244 1.80438,-0.18086 2.19213,0.67315 0.38737,0.85318 0.20609,1.80128 -0.43506,2.2753 -0.31704,0.23439 -0.33884,0.29542 -0.33884,0.94849 0,1.19713 -0.17287,1.64242 -0.90985,2.34371 -0.35837,0.34102 -0.62135,0.66894 -0.5844,0.72873 0.0369,0.0598 0.23443,0.14008 0.43884,0.17843 0.41761,0.0783 1.59073,0.79489 2.10894,1.28817 l 0.34121,0.32478 0.21877,-0.37078 c 0.43924,-0.74446 1.64098,-0.98692 2.59722,-0.52401 0.98674,0.47767 1.92151,2.00703 2.00565,3.28142 0.0417,0.63202 0.009,0.79822 -0.26243,1.32538 -0.24619,0.47845 -0.45701,0.69958 -1.02247,1.07242 -1.44191,0.95075 -2.95515,1.14282 -3.88041,0.49252 -0.31572,-0.22189 -0.46229,-0.41685 -0.51793,-0.6889 -0.0966,-0.47209 -0.4929,-0.82382 -1.04336,-0.92591 -0.23171,-0.043 -0.57505,-0.17261 -0.76298,-0.2881 -0.4712,-0.28956 -0.65498,-0.26404 -0.85575,0.11879 -0.0948,0.18082 -0.25363,0.48401 -0.35291,0.67375 -0.11579,0.22132 -0.19905,0.72221 -0.23225,1.39726 -0.0433,0.88122 -0.0932,1.10765 -0.30646,1.393 -0.43067,0.57614 -1.47955,0.92029 -2.15295,0.70642 z"
     id="path18" />
  <path
     style="fill:#1a2661;fill-opacity:1;stroke-width:0.109589"
     d="m 329.91619,642.70222 c -0.98444,-0.31203 -1.87514,-1.76214 -1.62928,-2.65257 0.18193,-0.65891 0.46077,-0.85306 1.14379,-0.79642 1.47907,0.12265 2.64616,1.62494 2.30826,2.97121 -0.12906,0.51425 -0.99315,0.74074 -1.82277,0.47778 z"
     id="path19" />
  <path
     style="fill:#1a2661;fill-opacity:1;stroke-width:0.0136986"
     d="m 337.2623,660.53049 c -0.53963,-0.0566 -1.00444,-0.26671 -1.3467,-0.60863 -0.0757,-0.0756 -0.16657,-0.17654 -0.20203,-0.22435 l -0.0645,-0.0869 0.008,-0.0911 c 0.007,-0.0793 -0.004,-0.2029 -0.0298,-0.31717 -0.007,-0.0335 -0.007,-0.0334 0.0143,0.004 0.012,0.0209 0.0377,0.10101 0.0571,0.17808 0.0811,0.32296 0.22893,0.50982 0.5905,0.74615 0.59594,0.38953 1.44927,0.44345 2.4074,0.15212 0.57588,-0.1751 1.30855,-0.56888 1.81828,-0.97724 0.28041,-0.22465 0.4639,-0.46538 0.6644,-0.87168 0.17068,-0.34586 0.2161,-0.49813 0.2318,-0.77699 0.0101,-0.1803 -0.0154,-0.57249 -0.051,-0.78289 -0.18593,-1.09869 -0.90371,-2.27945 -1.71551,-2.82205 -0.80849,-0.5404 -1.99278,-0.50158 -2.62079,0.0859 -0.12059,0.11281 -0.18278,0.19657 -0.33074,0.44551 l -0.12443,0.20934 -0.16899,-0.16139 c -0.33589,-0.32079 -0.55658,-0.49652 -0.96325,-0.76702 -0.59713,-0.39718 -0.99272,-0.59324 -1.4315,-0.70949 -0.17744,-0.047 -0.30693,-0.11236 -0.31223,-0.15758 -0.002,-0.0188 0.005,-0.0462 0.0155,-0.0608 0.0185,-0.0254 0.0199,-0.0245 0.029,0.0168 0.0219,0.0997 0.15633,0.1618 0.42134,0.19461 0.11829,0.0147 0.18242,0.0393 0.49713,0.19127 0.6311,0.30472 1.21629,0.71329 1.71574,1.1979 0.10014,0.0972 0.18352,0.17422 0.1853,0.17124 0.002,-0.003 0.0269,-0.0548 0.0558,-0.11502 0.36208,-0.7544 1.22844,-1.13645 2.17323,-0.95836 0.62854,0.11847 1.18032,0.46158 1.49492,0.92958 0.0451,0.067 0.13458,0.17801 0.1989,0.24658 0.49918,0.53214 0.83134,1.23193 0.95761,2.01749 0.0303,0.18863 0.0414,0.64999 0.0202,0.84186 -0.0848,0.76771 -0.42757,1.38209 -0.9912,1.77651 -0.0465,0.0325 -0.14619,0.0938 -0.22153,0.13626 -0.0753,0.0424 -0.18938,0.11185 -0.25342,0.15433 -0.59423,0.39413 -1.29546,0.67065 -1.94514,0.76706 -0.21371,0.0317 -0.60758,0.045 -0.78405,0.0265 z"
     id="path20" />
  <path
     style="fill:#1a2661;fill-opacity:1;stroke-width:0.25"
     d="m 479.02186,740.84193 c -0.40047,-0.22027 -1.46878,-0.49234 -2.37401,-0.6046 -1.39641,-0.17318 -1.75184,-0.32271 -2.34498,-0.98654 l -0.6991,-0.78243 0.53913,-0.87233 c 0.60203,-0.9741 0.53949,-1.1461 -0.455,-1.25141 -1.29289,-0.1369 -1.80412,-0.35219 -2.69609,-1.13534 -1.1257,-0.98839 -1.59043,-1.88613 -1.87202,-3.61632 -0.35856,-2.20306 -1.17682,-3.52748 -3.72488,-6.02902 -1.29531,-1.27165 -2.29373,-2.37346 -2.21872,-2.44847 0.075,-0.075 0.96066,-0.45298 1.9681,-0.83993 1.00744,-0.38695 1.87135,-0.82248 1.91981,-0.96785 0.0485,-0.14537 -0.55828,-0.45221 -1.34831,-0.68188 -2.79659,-0.81299 -4.51346,-2.50507 -6.39545,-6.30308 -1.37995,-2.78486 -1.4162,-3.93549 -0.16532,-5.24807 0.49776,-0.52231 1.01458,-1.15745 1.1485,-1.4114 0.21831,-0.41399 0.29943,-0.36692 0.78445,0.45513 0.40409,0.68487 0.68281,0.89855 1.1015,0.84445 1.17405,-0.15168 1.57513,0.70847 0.68553,1.47016 -0.7135,0.61092 -0.62241,1.01164 0.36198,1.59244 0.94584,0.55806 2.13398,2.2166 3.38457,4.72456 0.44566,0.89375 1.60473,3.01049 2.57569,4.70388 1.57256,2.74259 1.78108,3.26141 1.90907,4.75 l 0.14369,1.67112 1.27042,-0.0763 c 0.82252,-0.0494 1.36584,0.0387 1.54104,0.25 0.14884,0.17947 0.8934,2.16756 1.65459,4.41799 0.76118,2.25042 1.45458,4.16229 1.54089,4.24859 0.0863,0.0863 0.77529,0.21381 1.53108,0.28333 l 1.37416,0.1264 0.50344,1.375 c 0.2769,0.75625 0.52166,1.65625 0.54391,2 0.034,0.52528 -0.0792,0.63437 -0.70953,0.68371 -0.4125,0.0323 -1.07766,-0.12151 -1.47814,-0.34178 z"
     id="path21" />
  <path
     style="fill:#1a2661;fill-opacity:1;stroke-width:0.25"
     d="m 449.92812,705.20312 c -0.17806,-0.17806 -0.30312,-1.0045 -0.30312,-2.00312 0,-1.69524 -0.002,-1.7 -0.7,-1.7 -1.50235,0 -1.70514,-1.05173 -0.40311,-2.09062 0.49328,-0.39359 0.80265,-0.80439 0.68749,-0.91289 -0.11516,-0.1085 -1.39063,-0.24257 -2.83438,-0.29792 -2.05164,-0.0787 -2.84708,-0.21656 -3.64173,-0.63134 -1.76471,-0.92111 -1.91585,-1.52257 -0.51632,-2.05467 0.84633,-0.32177 2.41594,0.031 3.46655,0.77909 1.06079,0.75535 1.22668,0.43641 1.04244,-2.00423 -0.13989,-1.85298 -0.10277,-2.22468 0.25152,-2.51871 0.36267,-0.301 0.50927,-0.25522 1.1508,0.35941 0.92446,0.88569 1.34013,2.12024 1.18306,3.51372 l -0.12202,1.08255 1.03035,0.0753 c 0.91442,0.0668 1.08232,0.1817 1.49229,1.02086 0.96628,1.97793 0.79013,4.93 -0.39891,6.68492 -0.6523,0.96273 -0.9632,1.11935 -1.38491,0.69765 z"
     id="path22" />
  <path
     style="fill:#1a2661;fill-opacity:1;stroke-width:0.125"
     d="m 445.27028,689.77792 c -0.75267,-0.45711 -1.01914,-1.59593 -0.48195,-2.05976 0.28736,-0.24811 0.97522,-0.46816 1.46346,-0.46816 1.15484,0 1.58545,1.49449 0.68892,2.39102 -0.42414,0.42414 -1.10551,0.47998 -1.67043,0.1369 z"
     id="path23" />
  <path
     style="fill:#1a2661;fill-opacity:1;stroke-width:0.125"
     d="m 442.78136,688.0262 c -0.43694,-0.0544 -1.17466,-0.74408 -1.29078,-1.20671 -0.20637,-0.82224 0.40542,-1.45188 1.49882,-1.54256 0.63496,-0.0526 0.71622,-0.028 1.06768,0.32342 0.47158,0.47158 0.51933,1.20787 0.12022,1.85364 -0.1431,0.23156 -0.27004,0.42101 -0.28207,0.42101 -0.012,0 -0.19026,0.0436 -0.39606,0.097 -0.20579,0.0534 -0.52881,0.0777 -0.71781,0.0542 z"
     id="path24" />
  <path
     style="fill:#1a2661;fill-opacity:1;stroke-width:0.125"
     d="m 441.10359,690.56778 c -0.47567,-0.20692 -0.66609,-0.52569 -0.66609,-1.11509 0,-0.90358 0.92096,-1.40394 1.67486,-0.90997 0.64209,0.42071 0.5285,1.65606 -0.18626,2.02567 -0.41305,0.2136 -0.32992,0.21366 -0.82251,-6.1e-4 z"
     id="path25" />
  <path
     style="fill:#1a2661;fill-opacity:1;stroke-width:0.125"
     d="m 435.97963,696.42431 c -0.21745,-0.10725 -0.46593,-0.36536 -0.55218,-0.57357 -0.21618,-0.5219 0.0723,-1.02854 1.15825,-2.03393 1.59086,-1.47289 3.53557,-2.2361 5.7268,-2.24749 1.17849,-0.006 1.35398,0.0228 1.71875,0.28294 0.22344,0.15937 0.40625,0.39592 0.40625,0.52566 0,0.33957 -1.18578,1.50477 -2.19604,2.15793 -1.30163,0.84154 -2.98563,1.48846 -4.96838,1.90862 -1.00523,0.21302 -0.81465,0.21599 -1.29345,-0.0202 z"
     id="path26" />
  <path
     style="fill:#1a2661;fill-opacity:1;stroke-width:0.125"
     d="m 456.0882,713.49405 c -0.15775,-0.0633 -0.36944,-0.31287 -0.47043,-0.55458 -0.44416,-1.06301 0.73082,-2.03974 1.51291,-1.25765 0.44335,0.44335 0.41897,1.10026 -0.0586,1.57779 -0.38664,0.38665 -0.52344,0.41924 -0.98391,0.23444 z"
     id="path27" />
  <path
     style="fill:#1a2661;fill-opacity:1;stroke-width:0.125"
     d="m 456.24509,709.14926 c -1.15852,-0.48589 -1.8525,-1.12787 -2.25149,-2.0828 -0.25512,-0.61058 -0.2262,-1.09026 0.11541,-1.91398 0.16308,-0.39324 0.3658,-1.01128 0.45049,-1.37343 0.0847,-0.36215 0.25475,-0.78289 0.37791,-0.93498 0.19004,-0.2347 0.27733,-0.25775 0.57689,-0.1524 1.19054,0.41869 1.21647,2.53901 0.0492,4.02296 -0.13805,0.1755 -0.25099,0.46014 -0.25099,0.63253 0,0.30894 0.0109,0.31231 0.75987,0.23403 0.87026,-0.091 1.15534,0.0172 1.42641,0.54146 0.23091,0.44653 0.0698,0.90249 -0.39345,1.11356 -0.16753,0.0763 -0.31601,0.13565 -0.32996,0.1318 -0.014,-0.004 -0.25258,-0.10227 -0.53028,-0.21875 z"
     id="path28" />
  <path
     style="fill:#1a2661;fill-opacity:1;stroke-width:0.25"
     d="m 482.78745,756.31059 c -0.0644,-0.10417 -0.19971,-0.63854 -0.30072,-1.1875 -0.14252,-0.77454 -0.49057,-1.27857 -1.55394,-2.25034 -1.02182,-0.9338 -1.37029,-1.42632 -1.37029,-1.93673 0,-1.39727 0.74431,-1.63276 2.03371,-0.64347 0.82288,0.63135 1.27879,0.57687 1.27879,-0.1528 0,-0.90058 0.41644,-0.99976 0.92652,-0.22065 0.35353,0.54 0.44715,1.19007 0.44221,3.07047 -0.006,2.42698 -0.31123,3.51043 -0.98777,3.51043 -0.1933,0 -0.40413,-0.0852 -0.46851,-0.18941 z"
     id="path29" />
  <path
     style="fill:#1a2661;fill-opacity:1;stroke-width:0.25"
     d="m 478.40682,745.72599 c -0.76759,-0.71513 -1.06934,-1.59475 -0.79478,-2.3169 0.42086,-1.10695 1.96056,-1.2474 2.74481,-0.25038 1.39723,1.77628 -0.34171,4.06565 -1.95003,2.56728 z"
     id="path30" />
  <path
     style="fill:#1a2661;fill-opacity:1;stroke-width:0.125"
     d="m 314.78284,650.55433 c -0.96709,-0.52473 -0.35185,-2.27999 1.04275,-2.97495 0.82151,-0.40937 1.16332,-0.41433 1.55509,-0.0226 0.35966,0.35965 0.42265,1.23583 0.12891,1.79314 -0.20011,0.37968 -0.86992,1.03488 -1.28262,1.25465 -0.37109,0.1976 -1.02954,0.17468 -1.44413,-0.0503 z"
     id="path31" />
  <path
     style="fill:#1a2661;fill-opacity:1;stroke-width:0.0441942"
     d="m 382.7671,693.6163 c -0.35147,-0.54437 -0.71717,-1.27149 -0.97532,-1.93924 -0.51918,-1.34292 -0.65131,-1.66266 -0.85652,-2.07257 -0.72226,-1.44273 -1.38429,-1.88194 -3.16346,-2.09872 -1.07271,-0.13069 -1.72327,-0.31003 -2.40436,-0.66278 -0.42135,-0.21822 -1.03632,-0.66509 -1.30795,-0.95042 -0.15854,-0.16654 -0.16538,-0.18238 -0.0663,-0.1536 0.0608,0.0177 0.29293,0.11894 0.51592,0.22508 0.31982,0.15222 0.44577,0.2408 0.59639,0.41942 0.36586,0.4339 0.6805,0.48924 1.45625,0.25615 0.55937,-0.16807 0.89101,-0.19708 1.50131,-0.13134 0.60851,0.0656 0.97849,0.17305 1.52069,0.44183 0.49763,0.24668 0.9415,0.59205 1.24231,0.96659 0.28333,0.35279 0.57095,0.97139 0.65186,1.402 0.0878,0.46738 0.21838,0.81924 0.71328,1.92237 0.45919,1.02352 0.598,1.38496 0.72561,1.88939 0.083,0.32796 0.16591,0.89508 0.13084,0.89463 -0.009,-1.1e-4 -0.13547,-0.18407 -0.28056,-0.40879 z"
     id="path32" />
  <path
     style="fill:#1a2661;fill-opacity:1;stroke-width:0.0441942"
     d="m 364.70872,690.64568 c -0.35796,-0.0901 -0.71841,-0.2599 -1.04189,-0.49073 -0.5126,-0.36579 -0.81872,-0.85278 -1.01501,-1.61476 -0.10632,-0.41272 -0.11374,-0.49991 -0.093,-1.09454 0.0183,-0.52485 0.0567,-0.81195 0.2051,-1.52998 0.10045,-0.48613 0.20004,-1.08275 0.22131,-1.32582 0.0343,-0.39155 0.0299,-0.45202 -0.0383,-0.53033 -1.14413,-1.31321 -1.30253,-1.52831 -1.46417,-1.9882 -0.0787,-0.22377 -0.12161,-0.81813 -0.0591,-0.81813 0.0796,0 0.45574,0.37053 0.6848,0.67451 0.40164,0.53301 0.72492,1.26644 0.94778,2.15019 0.15202,0.60284 0.2442,1.44985 0.28655,2.63328 0.0671,1.87387 0.17576,2.43936 0.55558,2.89075 0.15789,0.18765 0.38548,0.29766 0.74545,0.36034 0.79618,0.13865 2.11344,-0.28116 2.84999,-0.90828 0.15638,-0.13315 0.3526,-0.26462 0.43605,-0.29216 0.46428,-0.15323 1.2055,0.19457 2.20622,1.0352 0.17553,0.14744 0.31163,0.27559 0.30246,0.28476 -0.009,0.009 -0.17268,-0.0717 -0.36333,-0.17971 -0.19066,-0.10801 -0.52564,-0.28624 -0.7444,-0.39606 -0.21876,-0.10983 -0.47374,-0.27149 -0.56662,-0.35926 -0.33248,-0.31418 -0.60294,-0.20175 -1.19589,0.49713 -0.39169,0.46168 -0.8528,0.79376 -1.30899,0.9427 -0.36741,0.11996 -1.185,0.15112 -1.55049,0.0591 z"
     id="path33" />
  <path
     style="fill:#1a2661;fill-opacity:1;stroke-width:0.0441942"
     d="m 358.2192,681.69127 c -1.3169,-0.25837 -2.47588,-1.32017 -2.7213,-2.49311 -0.0856,-0.40918 -0.0827,-0.5811 0.0202,-1.1778 0.14741,-0.85501 0.40599,-1.47082 0.88392,-2.10509 0.91842,-1.21883 2.38124,-2.01645 3.99891,-2.18045 0.47233,-0.0479 0.53531,-0.0442 1.11338,0.065 0.337,0.0636 0.92098,0.16666 1.29774,0.22889 2.20822,0.3648 3.22129,0.78292 4.05189,1.67232 0.52646,0.56372 0.76374,1.14907 0.76374,1.88406 0,0.45414 -0.20413,1.37002 -0.30534,1.37002 -0.019,0 -0.089,-0.19153 -0.1554,-0.42562 -0.2855,-1.00604 -0.69834,-1.72132 -1.38802,-2.4049 -0.85627,-0.84868 -1.89661,-1.39985 -3.2117,-1.70156 -0.70815,-0.16246 -1.85519,-0.20217 -2.54729,-0.0882 -1.06042,0.17464 -2.00408,0.62731 -2.66229,1.27709 -0.71111,0.70199 -1.14544,1.6861 -1.20244,2.72446 -0.0314,0.57223 0.0476,0.9902 0.27401,1.45024 0.48564,0.9866 1.5589,1.40298 2.85882,1.1091 0.32353,-0.0731 0.5047,-0.088 0.87237,-0.0714 0.25522,0.0115 0.52934,0.0453 0.60916,0.0751 l 0.14512,0.0541 -0.23351,0.17742 c -0.29581,0.22475 -0.78601,0.45603 -1.14693,0.54111 -0.30236,0.0713 -0.99791,0.0815 -1.31506,0.0192 z"
     id="path34" />
  <path
     style="fill:#1a2661;fill-opacity:1;stroke-width:0.0441942"
     d="m 368.56108,681.09339 c -0.17288,-0.18512 -0.42367,-0.50091 -0.55732,-0.70177 -0.2313,-0.34763 -0.59448,-1.06741 -0.65793,-1.30395 -0.0439,-0.16368 0.54163,0.46877 0.8163,0.88171 0.26437,0.39744 0.81371,1.46058 0.75471,1.46058 -0.0228,0 -0.18288,-0.15145 -0.35576,-0.33657 z"
     id="path35" />
  <path
     style="fill:#1a2661;fill-opacity:1;stroke-width:0.0441942"
     d=""
     id="path36" />
  <path
     style="fill:#1a2661;fill-opacity:1;stroke-width:0.0441942"
     d="m 373.1287,684.71936 c -0.74683,-1.02268 -1.93231,-2.05287 -2.93178,-2.54775 l -0.45962,-0.22758 0.17236,-0.0601 c 0.48851,-0.17021 1.22781,-0.0965 1.80598,0.18004 1.07363,0.51352 1.68363,1.45749 1.64949,2.55258 l -0.0128,0.40905 z"
     id="path37" />
  <path
     style="fill:#1a2661;fill-opacity:1;stroke-width:0.0441942"
     d="m 334.35102,686.24105 v -27.71584 l 0.25062,0.0295 c 0.28445,0.0334 0.60396,0.16176 0.76008,0.30528 0.14888,0.13687 0.26882,0.41845 0.26996,0.63379 8.6e-4,0.16143 0.0291,0.21155 0.23995,0.42579 0.68894,0.70004 1.83723,0.83765 3.10363,0.37195 0.55999,-0.20593 1.54402,-0.80165 1.85645,-1.12388 0.24887,-0.25666 0.50171,-0.72959 0.59685,-1.11635 0.0947,-0.38484 0.0724,-1.18765 -0.0452,-1.63223 -0.0996,-0.37637 -0.31562,-0.87684 -0.49246,-1.14096 l -0.0962,-0.14363 h 31.33801 31.33801 v 29.41122 29.41123 h -34.55984 -34.55985 z m 53.11771,16.68782 c 1.24878,-0.20251 2.35816,-0.86521 3.03407,-1.81242 0.68125,-0.95468 0.83273,-2.32003 0.34852,-3.14136 -0.32896,-0.55797 -0.99109,-1.01294 -1.76581,-1.21332 -0.43919,-0.1136 -1.31632,-0.12584 -1.72358,-0.0241 -0.31843,0.0796 -0.23366,0.1232 -1.14905,-0.59117 -1.08875,-0.84969 -1.56476,-1.13959 -2.17597,-1.32524 -0.52067,-0.15815 -0.53199,-0.11135 -0.0788,0.32594 0.68681,0.66279 1.44936,1.14893 2.29248,1.46151 0.58771,0.21788 1.1657,0.33259 1.90689,0.37844 0.34029,0.0211 0.71355,0.0674 0.82947,0.10301 1.20452,0.36999 1.70794,1.99312 1.02322,3.29907 -0.39813,0.75934 -1.08667,1.29444 -2.00985,1.56196 -1.36719,0.3962 -2.94583,0.1907 -4.45538,-0.57998 -0.63915,-0.3263 -1.01887,-0.46666 -1.51942,-0.56161 -0.56174,-0.10656 -0.69206,-0.0857 -0.29829,0.0478 0.39971,0.13548 0.77255,0.33661 1.30372,0.70327 1.13396,0.78276 1.41561,0.93859 2.11374,1.16942 0.8107,0.26805 1.5218,0.32887 2.32409,0.19875 z m -8.48914,-1.39144 c 0.17718,-0.0491 0.59355,-0.21089 0.92527,-0.35953 0.33173,-0.14865 0.73327,-0.31748 0.89232,-0.37517 l 0.28918,-0.1049 -0.53033,0.0193 c -0.34352,0.0125 -0.71714,0.0603 -1.06066,0.13556 -1.33761,0.2932 -2.05441,0.0629 -2.68252,-0.86203 -0.43402,-0.63908 -0.76232,-1.53665 -0.814,-2.22543 -0.0222,-0.29534 -0.0111,-0.40377 0.0623,-0.61085 0.10398,-0.2934 0.0822,-0.4591 -0.11236,-0.8559 l -0.12153,-0.24782 -0.0806,0.32419 c -0.10773,0.43349 -0.15162,1.87256 -0.0745,2.44107 0.12122,0.89303 0.44218,1.65458 0.88318,2.09551 0.61898,0.61889 1.56669,0.86362 2.42418,0.62599 z m 2.33879,-0.82507 c -0.0425,-0.0111 -0.11214,-0.0111 -0.15468,0 -0.0425,0.0111 -0.008,0.0202 0.0773,0.0202 0.0851,0 0.11988,-0.009 0.0773,-0.0202 z m -5.89352,-5.28389 c -0.0848,-0.14658 -0.80415,-1.08107 -1.16518,-1.51365 -0.51982,-0.62286 -1.35817,-1.54209 -1.79359,-1.96664 l -0.33994,-0.33146 0.11773,0.20584 c 0.0648,0.1132 0.16524,0.40157 0.2233,0.64081 0.19275,0.7942 0.52233,1.42266 1.0293,1.96268 0.39172,0.41725 0.80632,0.70679 1.29705,0.9058 0.37992,0.15407 0.69222,0.20186 0.63133,0.0966 z m 7.65567,-1.62287 c -0.0588,-0.70502 -0.25927,-1.29962 -0.96946,-2.87555 -0.34494,-0.76543 -0.50155,-1.20964 -0.62425,-1.77069 -0.22403,-1.02433 -1.02463,-1.92137 -2.12284,-2.37856 -0.54942,-0.22872 -1.01502,-0.31719 -1.71838,-0.32651 -0.58956,-0.008 -0.65247,-1.2e-4 -1.10651,0.13534 -0.75305,0.22469 -1.02459,0.18701 -1.33533,-0.18526 -0.20829,-0.24953 -0.44788,-0.40578 -0.94871,-0.61869 -0.43587,-0.1853 -0.68869,-0.37549 -0.77558,-0.58344 -0.0373,-0.0894 -0.061,-0.31232 -0.0614,-0.57783 -10e-4,-0.85662 -0.22993,-1.40613 -0.83326,-2.00271 -0.30138,-0.298 -0.46027,-0.41577 -0.75708,-0.56115 -0.47179,-0.23108 -0.99777,-0.34336 -1.43391,-0.30609 -0.34959,0.0299 -0.78999,0.14712 -0.75645,0.20138 0.0121,0.0195 0.11453,0.0709 0.22768,0.1141 0.3113,0.11889 0.85795,0.43788 1.25541,0.73258 0.83952,0.62246 1.53105,1.33464 2.18189,2.24701 0.80524,1.12882 1.61988,1.75066 2.84456,2.17134 0.44095,0.15147 0.86536,0.23807 1.62494,0.33157 0.77148,0.095 1.21173,0.20679 1.63518,0.41534 0.88196,0.43439 1.32718,1.10497 2.1439,3.2291 0.20094,0.52259 0.48424,1.18882 0.62955,1.4805 0.24293,0.48763 0.85041,1.48051 0.90582,1.48051 0.013,0 0.0104,-0.15853 -0.006,-0.35229 z m -17.00869,-3.1172 c 0.57743,-0.13614 1.05193,-0.4531 1.58733,-1.06031 0.56393,-0.63956 0.75939,-0.72171 1.06374,-0.44706 0.0912,0.0823 0.494,0.32357 0.89506,0.53612 0.40106,0.21254 0.85847,0.46939 1.01647,0.57078 0.43514,0.27925 0.4414,0.27928 0.13792,8.3e-4 -1.09674,-1.00632 -1.89876,-1.53346 -2.42856,-1.59621 -0.34393,-0.0407 -0.51205,0.0118 -0.79758,0.24947 -0.53881,0.44841 -1.05267,0.70823 -1.757,0.8884 -0.50029,0.12797 -1.08919,0.13851 -1.41802,0.0254 -0.34346,-0.11817 -0.58719,-0.40927 -0.73516,-0.87807 -0.1594,-0.50499 -0.20142,-0.88629 -0.24979,-2.26656 -0.0557,-1.58798 -0.18703,-2.45854 -0.51688,-3.42505 -0.14781,-0.4331 -0.41807,-0.972 -0.65488,-1.30582 -0.19706,-0.27778 -0.74007,-0.8155 -0.82352,-0.8155 -0.0322,0 -0.0419,0.13572 -0.0297,0.4159 0.0166,0.38069 0.0337,0.44731 0.202,0.78686 0.11857,0.23927 0.31726,0.52697 0.55973,0.81048 0.20674,0.24175 0.48402,0.5688 0.61617,0.7268 l 0.24028,0.28726 -0.0391,0.42079 c -0.0215,0.23144 -0.12104,0.81812 -0.22121,1.30373 -0.14775,0.71624 -0.18638,1.00492 -0.20462,1.52903 -0.0207,0.59532 -0.0133,0.68215 0.0943,1.10486 0.18805,0.7387 0.43275,1.15529 0.92253,1.57055 0.62099,0.52651 1.69567,0.76651 2.54042,0.56734 z m -6.54093,-8.97137 c 0.15205,-0.0358 0.40038,-0.11734 0.55183,-0.18109 0.31777,-0.13375 0.93434,-0.54949 0.88465,-0.59651 -0.0185,-0.0175 -0.14159,-0.0634 -0.27361,-0.10207 -0.32858,-0.0962 -0.91735,-0.089 -1.42158,0.0174 -1.06275,0.2243 -1.91096,0.0145 -2.47186,-0.61148 -0.54673,-0.61013 -0.73613,-1.48262 -0.53387,-2.45932 0.34932,-1.68683 1.53387,-2.86468 3.34152,-3.32258 0.65451,-0.1658 1.81188,-0.19401 2.58109,-0.0629 1.42904,0.24357 2.70821,0.89213 3.62045,1.83563 0.6603,0.68293 0.99576,1.26997 1.29527,2.2667 0.30503,1.01511 0.63772,1.682 1.17256,2.3505 0.26165,0.32704 0.74899,0.78727 0.79011,0.74615 0.0382,-0.0382 -0.59423,-1.2545 -0.85682,-1.64799 -0.14598,-0.21876 -0.38712,-0.52702 -0.53586,-0.68501 l -0.27043,-0.28726 0.0885,-0.28726 c 0.21171,-0.68729 0.23076,-1.41989 0.0518,-1.99193 -0.15858,-0.50687 -0.58553,-1.07404 -1.11642,-1.48306 -0.69698,-0.53699 -1.60831,-0.87154 -3.10791,-1.14091 -2.5669,-0.46108 -2.37926,-0.4366 -2.93703,-0.38317 -1.89485,0.1815 -3.57555,1.25508 -4.43597,2.83355 -0.32971,0.60487 -0.59277,1.73016 -0.54368,2.32569 0.11181,1.35646 1.24244,2.54573 2.723,2.86423 0.38241,0.0823 1.06129,0.0836 1.40429,0.003 z m -5.53558,-4.68493 c 0.37646,-0.10301 1.02299,-0.41725 1.42454,-0.69237 0.46508,-0.31865 1.38324,-1.23674 1.80761,-1.80748 0.19117,-0.2571 0.45081,-0.58983 0.57699,-0.73941 0.38638,-0.45803 0.67657,-1.02262 0.83346,-1.62155 0.11026,-0.42095 0.11179,-1.18405 0.003,-1.5468 -0.17159,-0.57268 -0.60872,-1.17098 -0.90272,-1.23555 -0.21544,-0.0473 -0.55179,-0.37886 -0.68461,-0.67481 -0.0636,-0.14165 -0.1464,-0.43428 -0.18407,-0.65031 -0.0721,-0.41362 -0.22438,-0.7419 -0.53827,-1.16063 -0.73259,-0.97726 -1.955,-1.64957 -3.52928,-1.94104 -0.35621,-0.0659 -0.66271,-0.0819 -1.57995,-0.0824 l -1.13801,-5.4e-4 -5.1e-4,-0.35356 c -6.3e-4,-0.42728 -0.0766,-0.73152 -0.29248,-1.17114 -0.20557,-0.41864 -0.75197,-0.98063 -1.12876,-1.16098 -0.7202,-0.34471 -1.49359,-0.34063 -2.22425,0.0117 -0.60616,0.29233 -1.08338,0.80751 -1.3042,1.40796 -0.0505,0.13723 -0.12425,0.31912 -0.16397,0.40419 -0.10486,0.22459 -0.0841,0.4998 0.0714,0.9462 0.21057,0.60442 0.18417,0.79233 -0.12798,0.91084 -1.42832,0.54229 -1.7174,2.69408 -0.56019,4.16978 0.1893,0.24139 0.75468,0.67966 1.06861,0.82835 0.73844,0.34975 1.35939,0.28925 2.98292,-0.29059 0.52259,-0.18664 1.10927,-0.3776 1.30373,-0.42435 0.80774,-0.19421 1.64168,-0.0353 2.00877,0.38282 0.13408,0.15271 0.14296,0.18223 0.12585,0.41878 -0.0174,0.24105 -0.0327,0.26978 -0.28894,0.54369 -0.65559,0.70082 -0.99376,1.62152 -0.99217,2.70124 0.001,0.95801 0.26472,1.6559 0.84395,2.23676 0.36154,0.36256 0.67526,0.55216 1.06467,0.64346 0.31492,0.0738 1.171,0.0444 1.5247,-0.0523 z"
     id="path38" />
  <path
     style="fill:#1a2661;fill-opacity:1;stroke-width:0.0441942"
     d="m 334.35102,686.24105 v -27.71584 l 0.25062,0.0295 c 0.28445,0.0334 0.60396,0.16176 0.76008,0.30528 0.14853,0.13655 0.26882,0.4183 0.26996,0.63234 8.5e-4,0.15945 0.0291,0.20968 0.23269,0.41324 0.40492,0.40492 0.8629,0.60665 1.47865,0.65132 0.614,0.0445 1.41337,-0.13363 2.06823,-0.46098 0.41825,-0.20908 1.06561,-0.61022 1.28081,-0.79367 0.26958,-0.22979 0.54241,-0.65598 0.67241,-1.05036 0.103,-0.31245 0.11693,-0.42452 0.11552,-0.9298 -10e-4,-0.48839 -0.0188,-0.63175 -0.11652,-0.9563 -0.12677,-0.42115 -0.27131,-0.7573 -0.44869,-1.04348 l -0.11642,-0.18783 h 31.33618 31.33617 v 29.41122 29.41123 h -34.55984 -34.55985 z m 53.10456,16.68759 c 0.55433,-0.0962 0.90557,-0.20825 1.38718,-0.44266 0.54634,-0.2659 0.8749,-0.50451 1.28276,-0.93158 0.52989,-0.55483 0.82348,-1.11864 0.95192,-1.82805 0.11083,-0.61215 0.0678,-1.11237 -0.13495,-1.56889 -0.2983,-0.67165 -1.06227,-1.22037 -1.97337,-1.41736 -0.41116,-0.0889 -1.24721,-0.0895 -1.60719,-10e-4 -0.31792,0.078 -0.21605,0.1315 -1.21534,-0.63812 -0.89531,-0.68954 -1.3144,-0.96505 -1.73283,-1.13918 -0.35489,-0.14768 -0.73209,-0.25389 -0.76936,-0.21662 -0.0825,0.0825 0.67194,0.77758 1.28962,1.18804 0.99495,0.66117 1.9677,0.97681 3.24964,1.05447 0.47382,0.0287 0.71131,0.0639 0.89503,0.13263 1.12686,0.42161 1.58871,1.97351 0.95872,3.2215 -0.7244,1.43503 -2.53249,2.09387 -4.6303,1.68721 -0.63618,-0.12332 -1.18018,-0.31742 -1.93426,-0.69013 -0.67684,-0.33453 -1.24448,-0.52142 -1.73468,-0.57112 -0.28511,-0.0289 -0.27278,-0.0198 0.27118,0.20072 0.21722,0.0881 0.68113,0.36425 1.23175,0.73335 1.00578,0.6742 1.20605,0.78331 1.84721,1.00649 0.82123,0.28585 1.58198,0.3567 2.36727,0.22048 z m -8.48965,-1.38746 c 0.16966,-0.047 0.53717,-0.18829 0.8167,-0.31389 0.27953,-0.1256 0.68722,-0.29668 0.90598,-0.38017 l 0.39775,-0.15181 -0.53033,0.0232 c -0.31451,0.0137 -0.74615,0.0691 -1.06066,0.13612 -1.35197,0.28799 -2.05371,0.062 -2.68252,-0.86392 -0.59725,-0.87944 -0.96857,-2.22178 -0.76995,-2.78339 0.10626,-0.30046 0.089,-0.50759 -0.0711,-0.85504 l -0.14274,-0.30967 -0.0807,0.32824 c -0.10877,0.44248 -0.15365,1.87412 -0.0766,2.44201 0.13033,0.96008 0.43439,1.6497 0.95149,2.15803 0.57142,0.56173 1.53103,0.79535 2.34264,0.57033 z m 2.33035,-0.82763 c -0.0304,-0.0123 -0.0801,-0.0123 -0.11048,0 -0.0304,0.0123 -0.006,0.0223 0.0552,0.0223 0.0608,0 0.0856,-0.01 0.0552,-0.0223 z m -6.04767,-5.52815 c -0.59212,-0.83814 -2.03113,-2.51129 -2.80322,-3.25932 l -0.31931,-0.30936 0.11569,0.20228 c 0.0636,0.11126 0.16733,0.40957 0.23046,0.66292 0.12083,0.48494 0.40015,1.13273 0.6366,1.47639 0.32538,0.47292 0.91484,1.00631 1.3705,1.24012 0.24644,0.12645 0.71795,0.28333 0.85462,0.28435 l 0.12541,9.3e-4 z m 7.7864,-1.72447 c -0.0958,-0.55494 -0.28302,-1.07984 -0.80212,-2.24846 -0.46304,-1.04242 -0.61497,-1.4598 -0.74546,-2.04783 -0.23427,-1.05566 -1.09182,-1.98734 -2.23513,-2.42831 -0.49756,-0.19192 -0.96158,-0.27191 -1.63378,-0.28166 -0.5598,-0.008 -0.62879,5.1e-4 -1.07943,0.13496 -0.73963,0.22068 -1.02733,0.18528 -1.31275,-0.16153 -0.19124,-0.23238 -0.49084,-0.42966 -0.97557,-0.6424 -0.44336,-0.19457 -0.68527,-0.37757 -0.7713,-0.58346 -0.0373,-0.0894 -0.061,-0.31232 -0.0614,-0.57783 -10e-4,-0.83828 -0.22836,-1.38988 -0.81629,-1.98271 -0.39479,-0.39809 -0.67165,-0.57259 -1.19389,-0.75251 -0.44646,-0.15381 -1.12374,-0.17429 -1.54164,-0.0466 -0.28236,0.0863 -0.2811,0.10339 0.0169,0.23045 1.01737,0.4337 2.38599,1.57405 3.17976,2.64942 0.17942,0.24307 0.40744,0.55124 0.50672,0.68482 0.42654,0.5739 1.13371,1.15496 1.8208,1.49608 0.7126,0.35379 1.21178,0.49245 2.27089,0.6308 1.33967,0.17499 1.90801,0.39332 2.45021,0.94126 0.50294,0.50825 0.84845,1.16398 1.45729,2.76568 0.35802,0.94186 0.80252,1.85474 1.20506,2.47488 l 0.30123,0.46403 0.0136,-0.16436 c 0.007,-0.0904 -0.0167,-0.34002 -0.0537,-0.55469 z m -16.97291,-2.77295 c 0.14488,-0.0368 0.41256,-0.13893 0.59486,-0.22689 0.28406,-0.13707 0.41361,-0.24365 0.90598,-0.74532 0.31599,-0.32196 0.61797,-0.60766 0.67106,-0.6349 0.16768,-0.086 0.31535,-0.0564 0.48891,0.0981 0.0912,0.0812 0.494,0.32263 0.89506,0.53653 0.40106,0.2139 0.86842,0.4764 1.03857,0.58334 l 0.30935,0.19444 -0.29861,-0.28893 c -0.6835,-0.66132 -1.5345,-1.26293 -2.0356,-1.43906 -0.45076,-0.15843 -0.75943,-0.0991 -1.13576,0.2182 -0.68677,0.57909 -1.64281,0.94245 -2.49624,0.94875 -0.53959,0.004 -0.79712,-0.0868 -1.05261,-0.37094 -0.37888,-0.4214 -0.49654,-1.01345 -0.56031,-2.81938 -0.0439,-1.24223 -0.12115,-1.95224 -0.28879,-2.65309 -0.2045,-0.855 -0.45008,-1.45086 -0.843,-2.04543 -0.19179,-0.29024 -0.76986,-0.87861 -0.86321,-0.87861 -0.0332,0 -0.0429,0.12996 -0.0307,0.4088 0.0284,0.64698 0.21602,0.98933 1.09595,1.99978 0.23283,0.26738 0.44688,0.51696 0.47565,0.55463 0.0773,0.10124 -10e-4,0.75877 -0.21455,1.79869 -0.14286,0.69605 -0.18399,1.00337 -0.20304,1.51718 -0.0222,0.59783 -0.0154,0.67734 0.094,1.102 0.15539,0.60319 0.32974,0.95675 0.63372,1.28508 0.40213,0.43436 0.88074,0.71504 1.45756,0.8548 0.34608,0.0838 1.03617,0.085 1.36173,0.002 z m -6.47223,-8.98924 c 0.18012,-0.0466 0.43686,-0.13458 0.57055,-0.19545 0.29611,-0.13481 0.86241,-0.5402 0.80456,-0.57596 -0.023,-0.0142 -0.15795,-0.0561 -0.29989,-0.0931 -0.35407,-0.0922 -0.89673,-0.0842 -1.39289,0.0205 -1.06275,0.2243 -1.91096,0.0145 -2.47186,-0.61148 -0.54681,-0.61022 -0.73625,-1.48314 -0.53371,-2.45932 0.35259,-1.69943 1.52734,-2.86205 3.36346,-3.32875 0.4316,-0.1097 0.53046,-0.11796 1.41421,-0.11817 0.83224,-2e-4 1.00676,0.0124 1.40608,0.10187 0.65576,0.14687 1.06345,0.28925 1.66542,0.58164 0.67909,0.32984 1.1995,0.7024 1.69047,1.21019 0.6394,0.66131 0.99576,1.26891 1.26545,2.15766 0.35833,1.18083 0.73977,1.9302 1.33123,2.61528 0.22468,0.26026 0.63239,0.62591 0.66335,0.59495 0.0267,-0.0267 -0.4226,-0.93808 -0.65613,-1.33113 -0.23433,-0.39441 -0.50142,-0.75061 -0.80183,-1.06933 l -0.20827,-0.22097 0.0909,-0.28726 c 0.20191,-0.63806 0.22994,-1.40765 0.0708,-1.94455 -0.24117,-0.81377 -1.08402,-1.65141 -2.1001,-2.08711 -0.69855,-0.29954 -1.313,-0.44345 -3.6391,-0.85232 -1.02535,-0.18023 -1.24212,-0.18204 -2.07025,-0.0174 -1.70512,0.3391 -3.2671,1.52536 -3.92815,2.98328 -0.17293,0.38139 -0.32598,0.97917 -0.39758,1.55285 -0.073,0.58509 0.005,1.0122 0.2882,1.58055 0.44468,0.89196 1.36289,1.57552 2.43477,1.81258 0.40377,0.0893 1.05494,0.0806 1.44029,-0.0191 z m -5.59454,-4.66772 c 0.37365,-0.10072 1.02067,-0.41461 1.42454,-0.69109 0.46328,-0.31716 1.36826,-1.22677 1.83902,-1.84845 0.21167,-0.27953 0.48321,-0.62756 0.60342,-0.7734 0.72801,-0.88326 1.04527,-2.17827 0.76637,-3.12822 -0.15564,-0.53011 -0.60778,-1.13886 -0.89229,-1.20135 -0.21386,-0.047 -0.55032,-0.37945 -0.68286,-0.67478 -0.0637,-0.14187 -0.14448,-0.42346 -0.17959,-0.62577 -0.21426,-1.2347 -1.50748,-2.41651 -3.18797,-2.91333 -0.84711,-0.25044 -1.2132,-0.29425 -2.46383,-0.29484 l -1.13801,-5.4e-4 10e-6,-0.33322 c 2e-5,-1.16788 -0.83832,-2.25879 -1.9567,-2.54621 -0.38196,-0.0982 -1.01288,-0.0607 -1.40733,0.0835 -0.83646,0.30589 -1.3215,0.82212 -1.69593,1.80499 -0.14419,0.3785 -0.13968,0.60147 0.0218,1.07929 0.20477,0.60579 0.17811,0.78827 -0.13258,0.90749 -0.53842,0.20659 -0.93037,0.64243 -1.15273,1.2818 -0.0805,0.23157 -0.0999,0.38589 -0.10242,0.81591 -0.004,0.61593 0.0632,0.91903 0.32141,1.45841 0.22499,0.46996 0.45951,0.7554 0.8897,1.08287 0.59858,0.45567 1.045,0.60497 1.67922,0.56161 0.44846,-0.0307 0.90582,-0.15408 1.93644,-0.52253 0.47833,-0.17101 1.02884,-0.34909 1.22335,-0.39572 0.8038,-0.19273 1.642,-0.0348 2.00407,0.37756 0.22833,0.26005 0.18469,0.63986 -0.10421,0.90704 -0.16982,0.15705 -0.47428,0.59503 -0.63081,0.90744 -0.29827,0.5953 -0.41664,1.13328 -0.41293,1.87679 0.005,0.94555 0.26701,1.63442 0.84065,2.20775 0.36797,0.36776 0.6909,0.56528 1.06546,0.65169 0.3125,0.0721 1.16817,0.0414 1.5247,-0.0547 z"
     id="path39" />
  <path
     style="fill:#1a2661;fill-opacity:1;stroke-width:0.0441942"
     d="m 334.35102,686.24105 v -27.71584 l 0.25062,0.0295 c 0.28445,0.0334 0.60396,0.16176 0.76008,0.30528 0.14837,0.13639 0.26882,0.41822 0.26996,0.63165 8.8e-4,0.16366 0.0272,0.20589 0.27719,0.44501 0.93728,0.89648 2.41653,0.83435 4.09266,-0.17188 0.80872,-0.4855 1.20239,-0.94509 1.39203,-1.62509 0.23932,-0.85816 0.0444,-1.96673 -0.50093,-2.84911 l -0.0965,-0.1561 h 31.33728 31.33727 v 29.41122 29.41123 h -34.55984 -34.55985 z m 53.43076,16.62366 c 0.68517,-0.16767 1.37199,-0.4839 1.84744,-0.85063 0.32953,-0.25417 0.82427,-0.79537 0.99787,-1.09158 0.48851,-0.83351 0.63638,-1.84902 0.37868,-2.60051 -0.25388,-0.74035 -0.98851,-1.32568 -1.95448,-1.55726 -0.44308,-0.10623 -1.29058,-0.11805 -1.68936,-0.0236 -0.31806,0.0754 -0.21705,0.12878 -1.22185,-0.64614 -0.88446,-0.68212 -1.39021,-1.00606 -1.84281,-1.18034 -0.40005,-0.15405 -0.66974,-0.2127 -0.66974,-0.14566 0,0.0808 0.58004,0.6247 1.01769,0.95438 1.0293,0.77536 2.14652,1.17456 3.53451,1.26293 0.75244,0.0479 1.02273,0.12754 1.37324,0.4046 0.78331,0.61918 0.99881,1.93175 0.48444,2.95071 -0.48567,0.96212 -1.39755,1.55409 -2.69757,1.75121 -0.52761,0.08 -0.95552,0.0798 -1.5468,-7.6e-4 -0.80315,-0.10941 -1.63205,-0.37507 -2.28253,-0.73154 -0.4691,-0.25708 -0.92975,-0.42744 -1.43312,-0.53002 -0.5335,-0.10873 -0.64601,-0.0945 -0.29403,0.0373 0.42104,0.15757 0.65037,0.28941 1.50918,0.8676 0.45134,0.30385 0.92513,0.60549 1.05288,0.6703 0.35199,0.17856 1.15285,0.45335 1.53086,0.52526 0.4662,0.0887 1.40586,0.056 1.9055,-0.0663 z m -8.8707,-1.30749 c 0.1475,-0.0382 0.51828,-0.17941 0.82398,-0.31376 0.30569,-0.13434 0.73479,-0.31265 0.95355,-0.39623 l 0.39775,-0.15197 -0.51252,0.0218 c -0.29746,0.0127 -0.74253,0.0699 -1.06066,0.13651 -1.02796,0.21512 -1.62775,0.14664 -2.14658,-0.24508 -0.8405,-0.63458 -1.57842,-2.53534 -1.32401,-3.41045 0.0396,-0.13609 0.0719,-0.30944 0.0719,-0.38523 0,-0.13669 -0.24701,-0.74327 -0.28656,-0.70372 -0.14333,0.14333 -0.25253,1.95892 -0.15968,2.65472 0.20737,1.55391 0.89047,2.4904 2.03723,2.79295 0.32482,0.0857 0.87581,0.0859 1.20557,4.6e-4 z m -3.55356,-6.21714 c -0.64618,-0.92718 -2.24464,-2.78965 -3.06234,-3.56811 l -0.16188,-0.15412 0.13365,0.2425 c 0.0735,0.13338 0.13401,0.27509 0.13445,0.3149 4.4e-4,0.0398 0.0513,0.24864 0.11305,0.46404 0.31921,1.11384 0.96722,1.97544 1.88784,2.51011 0.26137,0.1518 0.76488,0.33214 0.93079,0.33338 l 0.12454,9.3e-4 z m 7.72532,-1.50551 c -0.0578,-0.68437 -0.2378,-1.2376 -0.85795,-2.63769 -0.48914,-1.1043 -0.59611,-1.39368 -0.71283,-1.92838 -0.15544,-0.71203 -0.43269,-1.1951 -0.98923,-1.72363 -0.53662,-0.50961 -1.20208,-0.85439 -1.94327,-1.00684 -0.19406,-0.0399 -0.60396,-0.0741 -0.95018,-0.0792 -0.56959,-0.008 -0.64004,1.2e-4 -1.09164,0.13272 -0.5033,0.14778 -0.77346,0.17392 -0.98382,0.0952 -0.0684,-0.0256 -0.25368,-0.17386 -0.41168,-0.32943 -0.23496,-0.23137 -0.37979,-0.32627 -0.79549,-0.52127 -0.51417,-0.24119 -0.75473,-0.40456 -0.84957,-0.57696 -0.0287,-0.0521 -0.066,-0.36315 -0.0829,-0.69129 -0.0442,-0.85447 -0.22154,-1.30494 -0.73004,-1.85418 -0.32683,-0.353 -0.78272,-0.64957 -1.24907,-0.81253 -0.32772,-0.11452 -0.4456,-0.13334 -0.8449,-0.13494 -0.33519,-0.001 -0.52846,0.0202 -0.69605,0.0776 -0.20788,0.0712 -0.31035,0.16076 -0.18396,0.16076 0.1109,0 0.88627,0.42238 1.2412,0.67614 0.8701,0.62207 1.61731,1.35522 2.19359,2.15229 0.44676,0.61792 0.49483,0.67662 0.86088,1.05118 0.38765,0.39666 0.66941,0.61637 1.11909,0.87263 0.74808,0.42632 1.40508,0.62837 2.51422,0.77323 1.35885,0.17747 1.9276,0.39496 2.47231,0.94543 0.50625,0.5116 0.83608,1.13962 1.48735,2.83197 0.37649,0.97834 0.78786,1.81722 1.18741,2.42139 0.15609,0.23603 0.29281,0.42914 0.30384,0.42914 0.011,0 0.008,-0.1455 -0.007,-0.32332 z m -17.02074,-3.14659 c 0.14488,-0.0368 0.41256,-0.13901 0.59486,-0.22707 0.284,-0.13719 0.41373,-0.24398 0.90598,-0.74577 0.31599,-0.3221 0.61797,-0.60772 0.67106,-0.63471 0.16612,-0.0844 0.30848,-0.0545 0.49955,0.10516 0.10152,0.0848 0.39674,0.26695 0.65604,0.40472 0.44073,0.23418 1.09578,0.60116 1.39953,0.78407 0.2031,0.1223 -0.43654,-0.47407 -0.87427,-0.81514 -0.76011,-0.59225 -1.33031,-0.8826 -1.72906,-0.88046 -0.23138,0.001 -0.45712,0.11313 -0.84339,0.41804 -0.84717,0.66874 -2.1043,0.99509 -2.96144,0.76879 -0.11964,-0.0316 -0.2507,-0.12256 -0.4055,-0.28144 -0.40719,-0.41795 -0.51965,-0.95979 -0.58927,-2.8392 -0.0451,-1.21776 -0.12197,-1.95091 -0.27227,-2.59706 -0.20457,-0.87947 -0.58208,-1.75771 -0.97391,-2.26571 -0.20186,-0.26171 -0.67822,-0.7174 -0.74994,-0.7174 -0.0311,0 -0.0407,0.13819 -0.0285,0.4088 0.028,0.62217 0.23414,1.00858 1.00773,1.8893 0.67316,0.76638 0.62304,0.6657 0.57301,1.15094 -0.0237,0.22987 -0.12454,0.82564 -0.22409,1.32393 -0.25056,1.25418 -0.27942,1.94694 -0.10874,2.60951 0.1713,0.66498 0.33607,0.97418 0.73118,1.37214 0.37967,0.38241 0.87736,0.6606 1.37179,0.76679 0.38722,0.0832 1.02618,0.084 1.34968,0.002 z m -6.54376,-8.97126 c 0.16945,-0.0359 0.4515,-0.13337 0.62679,-0.21661 0.3214,-0.15263 0.81078,-0.48477 0.81078,-0.55026 0,-0.0695 -0.33833,-0.14586 -0.7513,-0.16948 -0.32413,-0.0185 -0.52919,-0.003 -0.89953,0.0697 -0.26382,0.0516 -0.64211,0.0937 -0.84064,0.0937 -1.6022,0 -2.56594,-1.38561 -2.19781,-3.15988 0.38768,-1.86856 1.81437,-3.12367 3.89677,-3.42815 0.23226,-0.034 0.63811,-0.044 1.14006,-0.0282 1.11945,0.0352 1.80082,0.2032 2.81234,0.6935 0.67841,0.32885 1.19902,0.70138 1.69047,1.20967 0.67367,0.69675 0.97218,1.22518 1.33183,2.35757 0.37197,1.17121 0.8558,2.02181 1.51734,2.6676 0.42208,0.41202 0.4584,0.41329 0.27465,0.01 -0.37354,-0.82067 -0.87205,-1.59846 -1.32086,-2.06082 l -0.20816,-0.21445 0.12384,-0.42637 c 0.16727,-0.57595 0.17938,-1.36429 0.0283,-1.84057 -0.27904,-0.87949 -1.1568,-1.69897 -2.29754,-2.14497 -0.7031,-0.2749 -1.42618,-0.4298 -4.14505,-0.88797 -0.4543,-0.0766 -1.32264,0.0426 -2.02583,0.27811 -1.6319,0.54644 -2.94137,1.78892 -3.43031,3.25483 -0.0512,0.15347 -0.13491,0.52139 -0.18606,0.81759 -0.0804,0.46548 -0.0867,0.59046 -0.0462,0.92107 0.15996,1.30819 1.27705,2.43707 2.72741,2.7562 0.35814,0.0788 0.99314,0.0781 1.36876,-10e-4 z m -5.54511,-4.68614 c 0.41181,-0.10317 1.1168,-0.45545 1.54974,-0.77439 0.4876,-0.35921 1.26615,-1.15309 1.74149,-1.77578 0.20873,-0.27344 0.48858,-0.63637 0.62187,-0.80652 0.31471,-0.40173 0.56094,-0.87915 0.70771,-1.3722 0.15813,-0.53116 0.16968,-1.30181 0.0262,-1.74668 -0.16949,-0.52548 -0.60866,-1.08105 -0.93709,-1.18546 -0.21133,-0.0672 -0.49902,-0.37043 -0.63327,-0.66751 -0.0604,-0.13368 -0.14048,-0.40672 -0.17792,-0.60675 -0.24849,-1.3275 -1.65602,-2.54536 -3.45626,-2.9905 -0.81503,-0.20153 -1.04881,-0.22538 -2.21033,-0.22546 l -1.11061,-8e-5 -0.0229,-0.44194 c -0.0279,-0.53743 -0.13649,-0.87271 -0.42629,-1.31591 -0.37979,-0.58082 -0.98154,-1.01397 -1.58271,-1.13925 -0.33301,-0.0694 -0.92337,-0.029 -1.30234,0.0891 -0.36386,0.11341 -0.89496,0.46183 -1.15215,0.75584 -0.32934,0.37648 -0.6949,1.19195 -0.6949,1.55012 0,0.10899 0.0597,0.37467 0.13258,0.5904 0.13122,0.3882 0.16458,0.65456 0.0956,0.76327 -0.0196,0.0309 -0.17343,0.1227 -0.34183,0.20402 -1.13064,0.54596 -1.49528,2.06818 -0.83217,3.47395 0.20488,0.43434 0.44878,0.74433 0.80795,1.02689 0.45598,0.35871 0.73778,0.50996 1.10058,0.59067 0.62933,0.14001 1.14856,0.0458 2.59571,-0.47078 1.2326,-0.44003 1.48552,-0.49863 2.03216,-0.47083 0.55865,0.0284 0.89821,0.14778 1.1601,0.40782 0.16766,0.16648 0.18782,0.20871 0.18782,0.39338 0,0.23489 -0.0706,0.39601 -0.24365,0.55605 -0.16452,0.15215 -0.47228,0.59145 -0.61922,0.88389 -0.32094,0.63872 -0.43884,1.23283 -0.40913,2.06172 0.017,0.47384 0.0413,0.62983 0.1471,0.94242 0.29876,0.88293 1.06291,1.63562 1.79314,1.76624 0.32209,0.0576 1.10139,0.0223 1.45308,-0.0658 z"
     id="path40" />
  <path
     style="fill:#1a2661;fill-opacity:1;stroke-width:0.0441942"
     d="m 386.50015,696.65108 c -0.50634,-0.16611 -1.34848,-0.60283 -1.77629,-0.92115 -0.37196,-0.27677 -1.06965,-0.90635 -1.0387,-0.9373 0.008,-0.008 0.1309,0.0149 0.27228,0.0517 0.30266,0.0788 0.85404,0.34934 1.23403,0.60541 0.22032,0.14847 1.52786,1.14227 1.68212,1.27851 0.0652,0.0575 -0.0103,0.0419 -0.37344,-0.0772 z"
     id="path41" />
  <path
     style="fill:#1a2661;fill-opacity:1;stroke-width:0.0441942"
     d="m 377.54993,701.45687 c -1.02465,-0.35073 -1.57852,-1.12247 -1.81331,-2.52658 -0.13055,-0.78075 -0.0207,-2.84995 0.14044,-2.6459 0.0265,0.0336 0.0832,0.15452 0.12587,0.26869 0.0794,0.21245 0.0767,0.29176 -0.0256,0.74107 -0.10848,0.47623 0.0993,1.43326 0.47201,2.17386 0.36277,0.72092 0.73228,1.14118 1.21031,1.37656 0.26383,0.1299 0.32813,0.1425 0.79623,0.15599 0.35622,0.0103 0.60879,-0.007 0.84067,-0.0578 0.54398,-0.11894 1.06995,-0.19977 1.28163,-0.19697 0.16341,0.002 0.18119,0.01 0.0997,0.0425 -0.0545,0.0219 -0.39838,0.17145 -0.7641,0.33227 -0.86109,0.37867 -1.15898,0.46252 -1.63357,0.45979 -0.2902,-0.002 -0.45652,-0.0298 -0.73024,-0.12348 z"
     id="path42" />
  <path
     style="fill:#1a2661;fill-opacity:1;stroke-width:0.0441942"
     d="m 334.35102,686.24105 v -27.71584 l 0.25062,0.0295 c 0.28445,0.0334 0.60396,0.16176 0.76008,0.30528 0.14691,0.13506 0.26881,0.41758 0.26996,0.62571 8.7e-4,0.15604 0.0307,0.20363 0.27719,0.44195 0.93469,0.90378 2.40347,0.84537 4.09633,-0.16288 1.0732,-0.63919 1.47913,-1.31282 1.47198,-2.44269 -0.004,-0.67305 -0.10343,-1.07424 -0.42332,-1.71252 l -0.23811,-0.47509 h 31.32748 31.32748 v 29.41122 29.41123 h -34.55984 -34.55985 z m 52.96962,16.70828 c 1.80297,-0.25077 3.2642,-1.41521 3.69512,-2.94459 0.14199,-0.50394 0.13937,-1.29841 -0.006,-1.6705 -0.32026,-0.82256 -1.04304,-1.38008 -2.06201,-1.59056 -0.40227,-0.0831 -1.18381,-0.0848 -1.56421,-0.003 -0.34319,0.0734 -0.25681,0.11653 -1.15705,-0.57763 -0.84016,-0.64784 -1.28116,-0.94628 -1.67993,-1.13686 -0.34132,-0.16313 -0.86581,-0.31792 -0.91336,-0.26956 -0.0497,0.0506 0.79941,0.82842 1.2102,1.10862 0.73645,0.50235 1.57109,0.85805 2.36849,1.0094 0.20379,0.0387 0.65227,0.0893 0.99663,0.11256 0.72369,0.0488 0.99925,0.13169 1.34396,0.40416 0.78331,0.61918 0.99881,1.93175 0.48444,2.95071 -0.41681,0.8257 -1.16969,1.38807 -2.23354,1.66835 -0.39596,0.10433 -0.52239,0.11651 -1.21534,0.1171 -0.64115,5.4e-4 -0.85252,-0.0165 -1.23612,-0.0999 -0.63178,-0.13724 -1.10937,-0.30916 -1.80915,-0.65121 -0.32587,-0.15928 -0.73215,-0.33711 -0.90284,-0.39517 -0.328,-0.11156 -1.03907,-0.25951 -1.07492,-0.22365 -0.0117,0.0116 0.09,0.0628 0.22585,0.11362 0.40615,0.15197 0.66301,0.29742 1.36602,0.77358 0.90047,0.6099 1.21351,0.78937 1.69847,0.97377 0.92593,0.35206 1.63225,0.44697 2.4648,0.33117 z m -8.17882,-1.46792 c 0.17014,-0.0607 0.4784,-0.18482 0.68501,-0.27588 0.2066,-0.091 0.56458,-0.24357 0.79549,-0.33894 l 0.41985,-0.1734 -0.49569,0.0255 c -0.27263,0.014 -0.69027,0.0665 -0.92808,0.11661 -0.23782,0.0501 -0.5716,0.10676 -0.74175,0.12589 l -0.30936,0.0348 0.24821,0.006 c 0.13652,0.003 0.51206,-0.0437 0.83455,-0.10448 0.32248,-0.0608 0.6682,-0.10983 0.76825,-0.10904 0.16968,0.001 0.14474,0.018 -0.3705,0.24644 -0.93069,0.41275 -1.24739,0.50356 -1.75219,0.50248 -0.68355,-10e-4 -1.22702,-0.22718 -1.69496,-0.70396 -0.38761,-0.39494 -0.67152,-1.01381 -0.81706,-1.78104 -0.11447,-0.60342 -0.0711,-2.56563 0.0596,-2.69633 0.0241,-0.0241 0.0712,0.0411 0.11767,0.16284 0.062,0.16227 0.0699,0.2539 0.0395,0.45674 -0.0209,0.13957 -0.0361,0.47251 -0.0338,0.73989 0.003,0.39132 0.0274,0.56366 0.12318,0.88364 0.23191,0.77506 0.6748,1.56731 1.07953,1.93114 0.34852,0.31329 0.63183,0.44409 0.99577,0.45972 l 0.31376,0.0135 -0.2724,-0.0389 c -0.56609,-0.0807 -1.00851,-0.39446 -1.41245,-1.00154 -0.60749,-0.91301 -0.92862,-2.1087 -0.74677,-2.78052 0.0449,-0.16605 0.0675,-0.35421 0.0531,-0.44291 -0.0276,-0.17034 -0.24047,-0.66255 -0.27259,-0.63043 -0.0111,0.0112 -0.0521,0.1683 -0.0911,0.34923 -0.0951,0.44214 -0.13593,1.80281 -0.069,2.30251 0.20659,1.54279 0.85606,2.44272 2.00955,2.78452 0.38745,0.1148 1.04339,0.0861 1.46454,-0.0641 z m -3.87333,-6.26679 c -0.51622,-0.73592 -1.69582,-2.12138 -2.57415,-3.02337 -0.45244,-0.46463 -0.50502,-0.5068 -0.4244,-0.34041 0.0506,0.10446 0.13881,0.37441 0.19601,0.59989 0.27702,1.09207 0.83971,1.94811 1.64766,2.50664 0.35326,0.24421 0.99922,0.52228 1.21928,0.52488 l 0.12436,10e-4 z m 7.76319,-1.72888 c -0.0968,-0.56095 -0.2983,-1.13843 -0.75244,-2.15628 -0.49446,-1.10819 -0.65776,-1.53646 -0.74296,-1.94842 -0.1957,-0.94631 -0.68471,-1.67569 -1.48829,-2.21983 -0.64376,-0.43593 -1.28142,-0.63853 -2.1845,-0.69409 -0.65539,-0.0403 -0.72338,-0.0333 -1.34784,0.13902 -0.48769,0.13459 -0.75842,0.15713 -0.9612,0.08 -0.0681,-0.0259 -0.25696,-0.17557 -0.41959,-0.33258 -0.23832,-0.23008 -0.39351,-0.33144 -0.79968,-0.52229 -0.27719,-0.13024 -0.58156,-0.30375 -0.6764,-0.38557 l -0.17242,-0.14877 0.1383,0.17728 c 0.23232,0.29781 0.85931,0.87345 1.18613,1.08898 0.85104,0.56125 1.62611,0.81862 2.98017,0.98958 0.66897,0.0845 1.03927,0.16748 1.41715,0.31769 0.4063,0.1615 0.59977,0.29251 0.92808,0.62842 0.47786,0.48893 0.83243,1.16477 1.43937,2.7435 0.45843,1.19245 0.73077,1.74349 1.27373,2.57719 0.21588,0.33147 0.22641,0.34079 0.23952,0.21174 0.008,-0.0743 -0.0182,-0.31977 -0.0571,-0.5456 z m -16.99344,-2.79961 c 0.158,-0.0371 0.43642,-0.14024 0.61872,-0.22914 0.28118,-0.13712 0.41862,-0.25002 0.90598,-0.74423 0.31599,-0.32042 0.61797,-0.60482 0.67106,-0.63199 0.16062,-0.0822 0.31246,-0.0562 0.46762,0.08 0.0811,0.0712 0.48448,0.31285 0.89647,0.53706 0.412,0.2242 0.81869,0.4512 0.90377,0.50444 0.51137,0.32 0.25344,0.037 -0.55879,-0.61319 -0.75354,-0.60317 -1.35933,-0.91289 -1.78048,-0.9103 -0.20982,0.001 -0.44626,0.12244 -0.82062,0.42046 -0.62367,0.49649 -1.54648,0.82729 -2.32019,0.83171 -0.57807,0.003 -0.76589,-0.059 -1.04632,-0.34678 -0.40459,-0.41528 -0.51603,-0.94537 -0.58966,-2.80484 -0.0496,-1.25247 -0.0901,-1.68163 -0.22432,-2.37729 -0.24939,-1.29241 -0.76311,-2.34923 -1.44623,-2.97519 -0.15729,-0.14413 -0.30299,-0.26205 -0.32379,-0.26205 -0.0208,0 -0.0378,0.13712 -0.0378,0.3047 0,0.62504 0.26041,1.1363 1.01533,1.9934 0.67793,0.76967 0.62954,0.67261 0.57562,1.1546 -0.0255,0.22786 -0.12697,0.82198 -0.22553,1.32027 -0.23848,1.20574 -0.27325,1.87576 -0.12993,2.50373 0.0546,0.23935 0.17688,0.60208 0.27168,0.80606 0.32081,0.69032 1.06709,1.27016 1.85159,1.43865 0.38488,0.0827 0.97385,0.0826 1.32582,-8e-5 z m 7.43973,-5.46651 c -0.0189,-0.0304 -0.0483,-0.31378 -0.0653,-0.62977 -0.0383,-0.70933 -0.13747,-1.04788 -0.43917,-1.49897 -0.3902,-0.58339 -1.01989,-1.04499 -1.69824,-1.24489 -0.36122,-0.10645 -1.06616,-0.10691 -1.38106,-9e-4 -0.12761,0.043 -0.232,0.0914 -0.23196,0.10771 3e-5,0.0163 0.11333,0.0757 0.25177,0.13216 0.96441,0.39299 2.41187,1.61555 3.21423,2.71481 0.19072,0.2613 0.35516,0.47509 0.36541,0.47509 0.0102,0 0.003,-0.0249 -0.0157,-0.0552 z m -13.7156,-3.56913 c 0.15783,-0.0534 0.36665,-0.13725 0.46404,-0.1863 0.22502,-0.11333 0.7295,-0.4696 0.7295,-0.51518 0,-0.0675 -0.33741,-0.14239 -0.7513,-0.16679 -0.32528,-0.0192 -0.52735,-0.004 -0.89717,0.0684 -1.11926,0.21849 -1.82881,0.0596 -2.44322,-0.54723 -0.59439,-0.58702 -0.80996,-1.49589 -0.59759,-2.51947 0.38035,-1.83319 1.72758,-3.05326 3.76121,-3.40619 0.62489,-0.10845 1.88384,-0.0668 2.51906,0.0834 0.65496,0.15483 0.9629,0.26421 1.5689,0.55727 0.67285,0.32539 1.19495,0.69981 1.69047,1.21231 0.67173,0.69475 0.96646,1.21599 1.33435,2.35988 0.23471,0.72979 0.54556,1.40999 0.86334,1.88918 0.1945,0.29329 0.97283,1.11995 1.01488,1.0779 0.0684,-0.0684 -0.60968,-1.34556 -0.96997,-1.8271 -0.10826,-0.14469 -0.29949,-0.3687 -0.42497,-0.4978 l -0.22815,-0.23473 0.0937,-0.3198 c 0.28344,-0.96741 0.21787,-1.85264 -0.18406,-2.48485 -0.51773,-0.81434 -1.30236,-1.37964 -2.41619,-1.74078 -0.58131,-0.18848 -0.99822,-0.27953 -2.48739,-0.54323 -0.99138,-0.17556 -1.38936,-0.22786 -1.71386,-0.22525 -1.31883,0.0106 -2.74592,0.61466 -3.76061,1.5918 -0.86828,0.83615 -1.30933,1.70446 -1.47847,2.91072 -0.0694,0.49495 -0.0697,0.56426 -0.004,0.91959 0.23148,1.26067 1.33074,2.31391 2.7273,2.6131 0.42197,0.0904 1.22248,0.0557 1.59069,-0.0689 z m -6.19296,-4.55341 c 1.25821,-0.15777 2.5504,-1.09836 3.82246,-2.78238 0.13771,-0.1823 0.36073,-0.47066 0.4956,-0.64081 0.30071,-0.37937 0.60448,-0.98676 0.72938,-1.45841 0.13372,-0.50492 0.13278,-1.25932 -0.002,-1.65728 -0.19172,-0.56586 -0.54791,-1.02039 -0.92924,-1.18581 -0.41389,-0.17954 -0.68269,-0.60294 -0.81835,-1.28907 -0.26121,-1.32107 -1.60008,-2.48901 -3.38941,-2.95672 -0.83426,-0.21806 -1.08014,-0.24469 -2.27236,-0.24607 l -1.11052,-10e-4 -0.0211,-0.41985 c -0.0474,-0.94341 -0.59254,-1.8179 -1.40213,-2.24941 -0.87737,-0.46763 -2.02824,-0.30129 -2.86075,0.41347 -0.38779,0.33295 -0.89749,1.32726 -0.89749,1.75082 0,0.0948 0.0597,0.35871 0.13258,0.58635 0.13103,0.40903 0.1633,0.66366 0.0973,0.76754 -0.0187,0.0294 -0.17446,0.12373 -0.34619,0.20964 -0.52767,0.26398 -0.92728,0.77915 -1.08146,1.39421 -0.1497,0.59717 -0.0338,1.52005 0.2653,2.11256 0.28886,0.57223 0.86016,1.13497 1.43987,1.41832 0.73835,0.36087 1.35713,0.29746 3.07236,-0.31486 1.20398,-0.4298 1.46515,-0.4901 2.01083,-0.46425 0.55601,0.0263 0.89529,0.14591 1.1601,0.40886 0.16997,0.16877 0.1878,0.20701 0.18759,0.40224 -2.6e-4,0.24235 -0.0362,0.30833 -0.40734,0.74799 -0.40433,0.47896 -0.71095,1.14847 -0.82761,1.8071 -0.0603,0.34052 -0.0595,1.13033 0.001,1.46428 0.1093,0.5986 0.41293,1.15814 0.86696,1.59767 0.56402,0.54601 1.12977,0.70484 2.08429,0.58515 z"
     id="path43" />
  <path
     style="fill:#1a2661;fill-opacity:1;stroke-width:0.0441942"
     d="m 334.35102,686.24095 v -27.71593 l 0.23975,0.0247 c 0.27147,0.028 0.61386,0.16578 0.77095,0.31019 0.14685,0.135 0.26881,0.41755 0.26996,0.62544 8.6e-4,0.15485 0.0311,0.20391 0.26734,0.43364 0.17443,0.16963 0.38134,0.31364 0.59949,0.41724 0.33048,0.15694 0.33829,0.15828 0.98212,0.16828 0.96593,0.015 1.51701,-0.14645 2.51103,-0.73573 0.79558,-0.47164 1.2413,-0.99685 1.40558,-1.65627 0.0457,-0.18359 0.0612,-0.44881 0.0525,-0.90099 -0.0109,-0.56338 -0.027,-0.68354 -0.13334,-0.99437 -0.0665,-0.19446 -0.20799,-0.51763 -0.31433,-0.71816 l -0.19335,-0.3646 h 31.33101 31.33102 v 29.41122 29.41123 h -34.55984 -34.55985 z m 53.32027,16.64528 c 1.63044,-0.33976 2.98726,-1.50646 3.33552,-2.86814 0.40244,-1.57354 -0.23888,-2.72373 -1.78872,-3.20801 -0.51383,-0.16055 -1.67471,-0.17094 -2.07186,-0.0186 -0.036,0.0138 -0.40417,-0.23558 -0.87883,-0.59525 -0.99566,-0.75443 -1.48303,-1.07582 -1.87636,-1.23736 -0.35022,-0.14382 -0.71826,-0.24229 -0.75781,-0.20275 -0.0389,0.0389 0.66153,0.70464 1.03019,0.97914 0.60128,0.44771 1.30647,0.79714 2.02905,1.00541 0.49513,0.14271 0.82539,0.19515 1.55948,0.24761 0.68061,0.0486 0.96427,0.13642 1.30102,0.4026 0.47802,0.37786 0.75495,1.00388 0.7594,1.7167 0.009,1.48683 -1.02406,2.59259 -2.77366,2.96805 -0.15874,0.0341 -0.55785,0.056 -0.99437,0.0547 -1.1283,-0.003 -1.78621,-0.17148 -3.09359,-0.79052 -0.75827,-0.35904 -0.96568,-0.43367 -1.47721,-0.53155 -0.32717,-0.0626 -0.49465,-0.0594 -0.30793,0.006 0.34674,0.12117 0.90861,0.43473 1.58626,0.88524 0.43753,0.29087 0.8908,0.58376 1.00727,0.65086 0.42451,0.24458 1.30631,0.53073 1.90955,0.61966 0.26093,0.0385 1.15547,-0.0114 1.5026,-0.0837 z m -8.75667,-1.34633 c 0.18665,-0.0477 0.6179,-0.20792 0.95833,-0.35597 0.34042,-0.14806 0.74277,-0.31847 0.89409,-0.37869 l 0.27513,-0.10949 -0.48614,0.0265 c -0.26737,0.0146 -0.73473,0.074 -1.03856,0.13205 -0.30384,0.0581 -0.63198,0.11304 -0.72921,0.12219 -0.16036,0.0151 -0.15579,0.0173 0.0493,0.0241 0.12436,0.004 0.48996,-0.0423 0.81245,-0.10305 0.32248,-0.0608 0.6682,-0.10983 0.76825,-0.10904 0.16968,10e-4 0.14474,0.018 -0.3705,0.24644 -0.93069,0.41275 -1.24739,0.50356 -1.75219,0.50248 -0.68355,-10e-4 -1.22702,-0.22718 -1.69496,-0.70396 -0.38761,-0.39494 -0.67152,-1.01381 -0.81706,-1.78104 -0.11555,-0.60914 -0.0716,-2.56506 0.0606,-2.69726 0.0785,-0.0785 0.1955,0.34762 0.16402,0.59725 -0.0811,0.64324 -0.0783,0.93944 0.0126,1.35119 0.32764,1.48287 1.24459,2.645 2.12108,2.68823 l 0.24864,0.0123 -0.23485,-0.0423 c -0.54866,-0.0987 -0.96711,-0.40577 -1.36208,-0.99938 -0.61013,-0.91695 -0.92903,-2.1048 -0.74631,-2.77982 0.0909,-0.33579 0.0762,-0.4744 -0.0885,-0.83708 l -0.12041,-0.26517 -0.06,0.22097 c -0.033,0.12154 -0.0803,0.42979 -0.10498,0.68501 -0.21403,2.21023 0.33593,3.7871 1.52497,4.37247 0.54994,0.27073 1.12756,0.33169 1.71626,0.18112 z m -3.50721,-6.09979 c 0,-0.0929 -0.9362,-1.28041 -1.67286,-2.12191 -0.50745,-0.57968 -1.4737,-1.59695 -1.49583,-1.57482 -0.0109,0.0109 0.0143,0.0858 0.056,0.16643 0.0417,0.0806 0.12102,0.32914 0.17626,0.55221 0.35741,1.4434 1.30316,2.53798 2.53867,2.9382 0.27871,0.0903 0.39775,0.10222 0.39775,0.0399 z m 7.66996,-1.62473 c -0.0702,-0.69528 -0.28544,-1.34717 -0.88646,-2.68479 -0.40313,-0.89722 -0.56422,-1.33399 -0.68181,-1.84857 -0.20292,-0.88808 -0.70896,-1.61609 -1.47696,-2.12483 -0.72623,-0.48107 -1.26594,-0.64206 -2.26641,-0.67606 -0.68056,-0.0231 -0.73209,-0.0188 -1.12695,0.0949 -0.85871,0.24717 -1.02399,0.22422 -1.48869,-0.20665 -0.27079,-0.25108 -0.43725,-0.36062 -0.82539,-0.54313 -0.2674,-0.12574 -0.5557,-0.28632 -0.64067,-0.35684 l -0.15448,-0.12822 0.14046,0.17938 c 0.38743,0.49479 1.12585,1.08222 1.7595,1.39971 0.63751,0.31943 1.16288,0.45912 2.36926,0.62996 0.42805,0.0606 0.91529,0.15247 1.08276,0.20413 1.23008,0.37945 1.77257,1.07456 2.66944,3.42045 0.17656,0.46183 0.42598,1.05845 0.55426,1.32583 0.31496,0.65646 0.89629,1.61308 0.98026,1.61308 0.0121,0 0.008,-0.13424 -0.008,-0.29831 z m -16.77923,-3.20709 c 0.46773,-0.16301 0.755,-0.37028 1.33109,-0.96039 0.27953,-0.28633 0.55168,-0.54219 0.60477,-0.56857 0.16911,-0.084 0.29739,-0.0526 0.54501,0.13343 0.13278,0.0998 0.34106,0.23168 0.46285,0.29314 0.27336,0.13795 1.26629,0.69184 1.41558,0.78966 0.0603,0.0395 0.10958,0.051 0.10958,0.0255 0,-0.0584 -0.95704,-0.86252 -1.31955,-1.1087 -0.36451,-0.24753 -0.85856,-0.48024 -1.09478,-0.51567 -0.32254,-0.0484 -0.47762,0.009 -0.91208,0.33997 -0.74771,0.56884 -1.61548,0.88966 -2.41883,0.89425 -0.23092,10e-4 -0.50617,-0.0228 -0.61168,-0.0536 -0.24975,-0.0729 -0.55183,-0.35468 -0.68705,-0.64077 -0.21262,-0.44986 -0.24923,-0.75786 -0.37971,-3.19424 -0.0915,-1.70877 -0.42491,-2.95813 -1.04654,-3.92165 -0.2045,-0.31697 -0.80885,-0.95586 -0.90419,-0.95586 -0.0818,0 -0.0211,0.73181 0.0831,1.00243 0.12745,0.33103 0.42289,0.75025 1.0031,1.42335 0.28053,0.32545 0.51006,0.61434 0.51006,0.64198 0,0.17553 -0.11351,0.91093 -0.24274,1.57263 -0.20374,1.04325 -0.25825,1.53002 -0.23012,2.05503 0.0255,0.47573 0.17288,1.06237 0.35938,1.43042 0.34399,0.67882 1.05987,1.21466 1.86307,1.39453 0.45716,0.10237 1.14228,0.0686 1.5597,-0.0769 z m 7.16596,-5.45497 c -0.0211,-0.0668 -0.0485,-0.35023 -0.0609,-0.62976 -0.0256,-0.57875 -0.12596,-0.96159 -0.34168,-1.30373 -0.50149,-0.79539 -1.29942,-1.32554 -2.15686,-1.43306 -0.39452,-0.0495 -0.86221,-0.007 -1.12087,0.10069 l -0.14375,0.0601 0.38078,0.18243 c 1.07988,0.51736 2.29463,1.56484 3.12172,2.69187 0.18283,0.24914 0.33861,0.45299 0.34616,0.45299 0.008,0 -0.004,-0.0547 -0.0246,-0.12154 z m -13.72353,-3.50424 c 0.38873,-0.12125 0.58917,-0.22181 0.94564,-0.47445 0.25197,-0.17857 0.27449,-0.20639 0.20698,-0.25575 -0.0973,-0.0712 -0.56034,-0.15183 -0.8715,-0.15183 -0.13308,0 -0.45846,0.0398 -0.72306,0.0884 -1.13467,0.20847 -1.82224,0.0526 -2.43441,-0.55202 -0.64641,-0.6384 -0.8498,-1.72217 -0.5291,-2.81929 0.49874,-1.70619 1.7807,-2.78557 3.68694,-3.10432 0.68702,-0.11488 1.83405,-0.0756 2.54694,0.0873 1.29419,0.29564 2.4008,0.89851 3.23727,1.76364 0.66923,0.69215 0.94896,1.18352 1.32453,2.32661 0.25641,0.78041 0.55391,1.43824 0.85833,1.89794 0.21363,0.32258 0.98584,1.14507 1.03222,1.09942 0.0446,-0.0439 -0.51764,-1.14536 -0.80579,-1.57842 -0.13644,-0.20506 -0.37668,-0.50917 -0.53387,-0.67579 l -0.28578,-0.30295 0.094,-0.31954 c 0.37731,-1.28267 0.15573,-2.26977 -0.70203,-3.12753 -0.63142,-0.63143 -1.55201,-1.06679 -2.84841,-1.34709 -1.13757,-0.24594 -2.82626,-0.5109 -3.25571,-0.51081 -1.90368,3.9e-4 -3.9243,1.24768 -4.78177,2.95168 -0.30454,0.60518 -0.54917,1.72569 -0.49005,2.24455 0.16186,1.42049 1.31982,2.55108 2.93653,2.86713 0.26322,0.0515 1.08738,-0.0118 1.39211,-0.10685 z m -5.78666,-4.61901 c 0.51215,-0.1334 1.12296,-0.44458 1.64933,-0.84026 0.39248,-0.29503 1.17141,-1.08971 1.55578,-1.58724 0.18021,-0.23326 0.472,-0.60639 0.64843,-0.82919 0.37628,-0.47516 0.68039,-1.06252 0.80662,-1.5579 0.10164,-0.39886 0.12425,-1.14339 0.0454,-1.49518 -0.1215,-0.54215 -0.55679,-1.16119 -0.92765,-1.31922 -0.43753,-0.18644 -0.70143,-0.57423 -0.847,-1.24463 -0.1443,-0.66455 -0.41116,-1.14294 -0.93273,-1.67204 -0.7273,-0.73779 -1.76079,-1.24016 -3.08372,-1.49895 -0.44257,-0.0866 -0.65525,-0.0999 -1.64621,-0.10282 l -1.13798,-0.003 -7.9e-4,-0.28727 c -0.003,-1.25502 -0.93851,-2.41415 -2.10931,-2.61471 -1.03341,-0.17703 -2.18732,0.39102 -2.6726,1.31567 -0.22604,0.43072 -0.38806,0.88279 -0.38806,1.08281 0,0.094 0.0597,0.35724 0.13258,0.58488 0.13248,0.41357 0.16328,0.66359 0.095,0.77121 -0.0199,0.0314 -0.15386,0.11277 -0.29764,0.18082 -0.76171,0.36054 -1.18514,1.10634 -1.1822,2.08228 0.002,0.56584 0.0898,0.95642 0.32602,1.44494 0.36985,0.76496 1.24165,1.46837 1.98996,1.60559 0.56516,0.10364 1.10645,-0.006 2.60028,-0.52894 1.15843,-0.40517 1.41081,-0.46137 1.94619,-0.43337 0.53602,0.028 0.88107,0.15193 1.14046,0.40949 0.16993,0.16873 0.18781,0.20705 0.18766,0.40224 -1.9e-4,0.24203 -0.0465,0.32691 -0.41947,0.76816 -0.2839,0.33591 -0.59849,0.94466 -0.73085,1.41422 -0.13227,0.46924 -0.16596,1.35387 -0.0707,1.85568 0.0892,0.46996 0.33699,0.99362 0.64248,1.35799 0.29254,0.34894 0.80359,0.69611 1.11851,0.75985 0.12846,0.026 0.27335,0.0563 0.32196,0.0674 0.15713,0.0357 0.99287,-0.0237 1.24021,-0.0881 z m -16.25617,-16.49201 c -0.0917,-0.01 -0.2309,-0.009 -0.30935,3.6e-4 -0.0785,0.01 -0.003,0.0176 0.16671,0.0174 0.17015,-1.9e-4 0.23434,-0.008 0.14264,-0.0177 z"
     id="path44" />
  <path
     style="fill:#1a2661;fill-opacity:1;stroke-width:0.0441942"
     d="m 374.98756,695.35626 c -0.86089,-0.31194 -1.55004,-0.90587 -2.0316,-1.7509 -0.20576,-0.36107 -0.44031,-1.01842 -0.4888,-1.36992 l -0.0305,-0.22097 0.29512,0.28726 c 0.61979,0.60329 1.96569,2.18067 2.45109,2.87265 0.21035,0.29988 0.18794,0.32075 -0.19532,0.18188 z"
     id="path45" />
  <path
     style="fill:#1a2661;fill-opacity:1;stroke-width:0.0441942"
     d="m 385.87755,702.88388 c -0.41382,-0.0749 -1.29354,-0.39665 -1.66554,-0.6091 -0.15251,-0.0871 -0.5602,-0.35307 -0.90598,-0.59105 -0.34577,-0.23797 -0.78778,-0.51662 -0.98223,-0.61921 -0.19446,-0.1026 -0.31665,-0.18712 -0.27155,-0.18783 0.21546,-0.003 0.69307,0.16947 1.3985,0.50615 1.1412,0.54467 1.84101,0.7434 2.81848,0.80039 1.72627,0.10065 3.19114,-0.58116 3.78208,-1.76033 0.62041,-1.23799 0.26868,-2.74151 -0.76164,-3.25572 -0.32974,-0.16457 -0.38611,-0.17574 -1.1441,-0.22687 -0.35808,-0.0241 -0.72066,-0.06 -0.80573,-0.0797 l -0.15468,-0.0358 0.23419,-0.0518 c 0.3776,-0.0836 1.21114,-0.0649 1.63437,0.0365 0.76647,0.18376 1.47408,0.67498 1.76878,1.22789 0.50246,0.9427 0.28103,2.26239 -0.55283,3.29487 -0.94938,1.17552 -2.81986,1.83631 -4.39212,1.55162 z"
     id="path46" />
  <path
     style="fill:#1a2661;fill-opacity:1;stroke-width:0.125"
     d="m 568.4375,451.16819 c -1.78611,-0.32499 -3.48526,-1.7208 -3.88019,-3.18747 -0.0973,-0.36131 -0.0842,-0.57391 0.0559,-0.9092 0.35322,-0.84537 1.07869,-0.69284 2.32796,0.48943 1.13629,1.07535 1.72067,1.25658 3.24637,1.00677 0.74499,-0.12198 1.25,0.23132 1.25,0.8745 0,0.50065 -0.59688,1.25685 -1.18555,1.502 -0.45159,0.18807 -1.38115,0.30281 -1.81445,0.22397 z"
     id="path47" />
  <path
     style="fill:#1a2661;fill-opacity:1;stroke-width:0.125"
     d="m 552.69628,432.14569 c -0.68288,-0.68289 -1.14481,-0.8361 -1.94628,-0.64554 -0.87398,0.2078 -1.38504,0.15285 -1.79623,-0.19314 -0.46817,-0.39394 -0.58072,-0.72463 -0.39732,-1.1674 0.28963,-0.69925 1.35359,-0.97915 2.15217,-0.56619 0.21104,0.10913 0.66711,0.40203 1.01349,0.65088 0.34638,0.24885 0.91623,0.54884 1.26634,0.66665 0.84017,0.28271 1.13135,0.65736 0.93924,1.20847 -0.0778,0.22322 -0.24853,0.46314 -0.37935,0.53316 -0.19882,0.1064 -0.33869,0.0265 -0.85206,-0.48689 z"
     id="path48" />
  <path
     style="fill:#1a2661;fill-opacity:1;stroke-width:0.176777"
     d="m 440.69736,579.85215 c -0.54472,-0.33218 -1.92054,-1.79632 -2.22904,-2.37213 -0.13949,-0.26034 -0.0613,-0.35944 0.45351,-0.57452 0.34213,-0.14296 1.08703,-0.25992 1.65533,-0.25992 0.91134,0 1.0917,0.061 1.52848,0.51689 0.6856,0.71562 0.81322,1.8599 0.28245,2.53251 -0.44786,0.56753 -0.94242,0.6135 -1.69073,0.15717 z"
     id="path49" />
  <path
     style="fill:#1a2661;fill-opacity:1;stroke-width:0.176777"
     d="m 416.30912,546.03487 c -0.62008,-0.3409 -1.67938,-1.44705 -1.67938,-1.75366 0,-0.57495 0.46778,-0.76696 1.28724,-0.52835 1.52793,0.4449 2.90174,1.76296 2.38065,2.28405 -0.25631,0.25631 -1.52093,0.25501 -1.98851,-0.002 z"
     id="path50" />
  <path
     style="fill:#1a2661;fill-opacity:1;stroke-width:0.176777"
     d="m 455.95129,595.19297 c -0.53399,-0.31102 -0.38053,-1.08396 0.35355,-1.78083 0.7942,-0.75393 1.19272,-0.91668 1.64799,-0.67303 0.56224,0.3009 0.43524,1.12498 -0.29854,1.93718 -0.64731,0.7165 -1.11587,0.85865 -1.703,0.51668 z"
     id="path51" />
  <path
     style="fill:#1a2661;fill-opacity:1;stroke-width:0.176777"
     d="m 481.13813,591.27735 c -0.60453,-0.29134 -0.68251,-0.91483 -0.19077,-1.52526 0.83689,-1.03889 1.91971,-1.3899 2.26979,-0.73577 0.28536,0.5332 0.038,1.16734 -0.72378,1.85557 -0.75412,0.6813 -0.77187,0.68661 -1.35524,0.40546 z"
     id="path52" />
  <path
     style="fill:#1a2661;fill-opacity:1;stroke-width:0.176777"
     d=""
     id="path54" />
  <path
     style="fill:#1a2661;fill-opacity:1;stroke-width:0.176777"
     d=""
     id="path55" />
  <path
     style="fill:#1a2661;fill-opacity:1;stroke-width:0.125"
     d=""
     id="path57" />
  <path
     style="fill:#1a2661;fill-opacity:1;stroke-width:0.125"
     d="m 612.97765,747.35141 c -0.41718,-0.20169 -0.60603,-0.76559 -0.41271,-1.23231 0.24136,-0.58269 1.37256,-1.04142 1.37256,-0.5566 0,0.35231 0.59991,0.19386 1.43776,-0.37976 1.09304,-0.74832 1.44933,-0.81745 1.87057,-0.36292 0.34177,0.36876 0.50995,0.82193 0.40579,1.09337 -0.0346,0.0901 -0.44054,0.23335 -0.90218,0.31841 -0.49049,0.0904 -1.3002,0.38611 -1.94815,0.71153 -1.15356,0.57935 -1.3697,0.62774 -1.82364,0.40828 z"
     id="path58" />
  <path
     style="fill:#1a2661;fill-opacity:1;stroke-width:0.125"
     d="m 600.79794,727.26334 c -0.41319,-0.33458 -0.41319,-1.1921 0,-1.52669 0.89755,-0.72679 2.11533,0.22244 1.58961,1.23908 -0.30105,0.58216 -1.05696,0.71893 -1.58961,0.28761 z"
     id="path59" />
  <path
     style="fill:#1a2661;fill-opacity:1;stroke-width:0.353553"
     d=""
     id="path60" />
  <path
     style="fill:#1a2661;fill-opacity:1;stroke-width:0.353553"
     d="m 604.75307,295.71205 c 0,-0.73398 2.23586,-2.96984 2.96985,-2.96984 0.93108,0 0.64463,0.95815 -0.68354,2.28631 -1.32816,1.32816 -2.28631,1.61462 -2.28631,0.68353 z"
     id="path61" />
  <path
     style="fill:#1a2661;fill-opacity:1"
     d="M 380.04307,366.01726 340.08614,365.5 l 6.5687,-5.22611 c 7.79045,-6.19814 13.05212,-13.47173 16.56187,-22.89464 2.1679,-5.82035 2.63323,-9.03423 3.02303,-20.87925 0.4179,-12.69877 0.25388,-14.54768 -1.76466,-19.89245 -3.10754,-8.2283 -11.5279,-20.21499 -17.78177,-25.313 L 341.42508,267 l 122.78746,0.038 122.78746,0.038 15.63375,15.32201 15.63375,15.32201 -13.52461,15.39003 c -7.43853,8.46452 -21.39291,24.05253 -31.00972,34.64003 L 556.24804,367 488.12402,366.76726 c -37.46821,-0.12801 -86.10464,-0.46551 -108.08095,-0.75 z m 227.85012,-71.27882 c 0.56984,-0.90338 0.72536,-1.95322 0.34561,-2.33298 -0.95136,-0.95136 -3.7388,1.50917 -3.7388,3.30032 0,1.8101 2.00107,1.23963 3.39319,-0.96734 z"
     id="path62" />
</svg>
