<?xml version="1.0" encoding="UTF-8" standalone="no"?>
<svg
   width="997"
   height="1008"
   viewBox="0 0 997 1008"
   version="1.1"
   id="svg4"
   sodipodi:docname="logo.svg"
   inkscape:version="1.4 (86a8ad7, 2024-10-11)"
   xmlns:inkscape="http://www.inkscape.org/namespaces/inkscape"
   xmlns:sodipodi="http://sodipodi.sourceforge.net/DTD/sodipodi-0.dtd"
   xmlns="http://www.w3.org/2000/svg"
   xmlns:svg="http://www.w3.org/2000/svg">
  <defs
     id="defs4" />
  <sodipodi:namedview
     id="namedview4"
     pagecolor="#ffffff"
     bordercolor="#000000"
     borderopacity="0.25"
     inkscape:showpageshadow="2"
     inkscape:pageopacity="0.0"
     inkscape:pagecheckerboard="0"
     inkscape:deskcolor="#d1d1d1"
     inkscape:export-bgcolor="#ffffff00"
     inkscape:zoom="0.80654762"
     inkscape:cx="334.76015"
     inkscape:cy="389.93358"
     inkscape:window-width="1920"
     inkscape:window-height="1094"
     inkscape:window-x="-11"
     inkscape:window-y="-11"
     inkscape:window-maximized="1"
     inkscape:current-layer="svg4" />
  <path
     d="m 453.25,760.08 c -19.11,0.04 -50.2,0.16 -69.08,0.25 -18.89,0.09 -34.41,0.09 -34.51,0 -0.1,-0.1 -4,-0.27 -8.67,-0.38 -4.67,-0.11 -10.29,-0.67 -12.49,-1.25 -2.2,-0.59 -4.3,-1.09 -4.67,-1.13 -0.36,-0.04 -1,-0.41 -1.41,-0.82 -0.42,-0.41 -1.44,-0.75 -2.28,-0.75 -2.84,0 -14.9,-7.94 -20.09,-13.23 -9.76,-9.95 -15.15,-22.84 -15.36,-36.77 -0.17,-11.06 0.71,-16.27 4.18,-24.69 4.22,-10.22 6.22,-12.93 25.76,-34.91 9.83,-11.05 25.29,-28.56 34.37,-38.9 9.08,-10.34 16.96,-19.3 17.53,-19.9 6.6,-7.06 49.68,-56.11 53.14,-60.51 0.66,-0.85 4.19,3.17 4.17,4.75 -0.04,2.28 0.71,4.98 2.59,9.42 0.88,2.06 1.26,3.69 0.84,3.63 -0.43,-0.07 -1.11,-0.02 -1.52,0.12 -0.41,0.13 -1.2,0.3 -1.75,0.37 -0.55,0.06 -1,0.46 -1,0.87 0,0.66 0.46,0.91 1.25,0.68 3.26,-0.97 4.7,-0.66 5.28,1.16 1.33,4.2 18.92,23.91 21.34,23.91 0.45,0 1.58,0.84 2.52,1.88 1.54,1.7 1.55,1.93 0.09,2.49 -0.88,0.34 -1.33,1.07 -0.98,1.63 0.41,0.66 1.34,0.62 2.74,-0.13 1.7,-0.91 2.92,-0.73 6.19,0.89 2.24,1.12 5.19,2.51 6.57,3.1 3.09,1.32 16.15,3.96 21.32,4.3 2.1,0.14 4,0.55 4.22,0.91 0.22,0.36 -1.42,2.63 -3.64,5.04 -2.23,2.41 -5.26,5.98 -6.73,7.92 -1.47,1.94 -5.33,6.32 -8.58,9.73 -3.26,3.4 -6.63,7.24 -7.5,8.52 -0.88,1.28 -2.49,3.24 -3.59,4.35 -2.68,2.7 -21.84,24.42 -27.92,31.64 -2.68,3.18 -4.58,6.06 -4.24,6.41 0.35,0.34 39.45,0.67 86.9,0.72 l 86.26,0.1 -7.79,7.5 c -7.91,7.63 -10.83,12.31 -14.89,23.94 -2.58,7.39 -3.19,21.81 -1.25,29.64 0.8,3.26 1.66,6.75 1.91,7.77 0.24,1.02 0.93,2.44 1.52,3.15 0.59,0.71 1.26,2.23 1.48,3.38 0.83,4.32 7.64,12.81 15.52,19.35 l 4.5,3.73 -58.25,0.02 c -32.04,0.01 -58.14,-0.32 -58,-0.73 0.14,-0.41 -0.2,-0.75 -0.75,-0.75 -0.55,0 -0.89,0.34 -0.75,0.75 0.14,0.41 -15.39,0.79 -34.5,0.83 z m 25.48,-19.21 c 2.08,1.16 3.6,0.45 2.55,-1.19 -0.41,-0.65 -0.77,-1.63 -0.79,-2.18 -0.02,-0.55 -0.81,-0.87 -1.76,-0.71 -0.95,0.17 -1.79,-0.17 -1.85,-0.75 -0.17,-1.34 -0.38,-2.09 -1.31,-4.54 -0.42,-1.1 -0.93,-2.55 -1.13,-3.23 -0.21,-0.72 -1.08,-0.96 -2.08,-0.58 -1.27,0.49 -1.55,0.26 -1.11,-0.9 0.33,-0.86 -0.04,-2.48 -0.83,-3.6 -0.78,-1.12 -2.58,-4.33 -3.98,-7.13 -1.66,-3.29 -2.99,-4.85 -3.75,-4.39 -0.69,0.41 -0.61,0 0.18,-0.98 1.25,-1.54 0.89,-2.13 -1.12,-1.81 -0.41,0.07 -0.64,-0.22 -0.5,-0.63 0.14,-0.41 -0.09,-0.86 -0.5,-1 -0.41,-0.14 -0.71,0.05 -0.66,0.41 0.05,0.36 -0.59,1.04 -1.41,1.5 -2.44,1.37 2.34,10.37 6.01,11.33 l 2.81,0.73 -2.5,0.96 -2.5,0.96 2.56,2.22 c 2.6,2.25 4.42,5.41 4.06,7.02 -0.36,1.56 3.22,4.71 4.71,4.13 1.17,-0.45 1.22,-0.27 0.25,0.9 -0.98,1.17 -0.81,1.66 0.86,2.56 1.13,0.6 2.06,0.84 2.06,0.52 0,-0.33 0.78,-0.15 1.73,0.38 z M 384,700 c 1.79,1.35 2.92,1.58 4.25,0.87 2,-1.07 1.46,-3.08 -0.62,-2.28 -0.72,0.28 -1.86,-0.17 -2.54,-0.99 -0.68,-0.81 -1.92,-1.22 -2.75,-0.9 -1.07,0.41 -1.42,0.03 -1.2,-1.31 0.17,-1.04 -0.12,-2.56 -0.65,-3.39 -0.53,-0.83 -0.97,-1.95 -0.97,-2.5 -0.02,-1.31 -2.66,-1.39 -4.33,-0.14 -0.93,0.7 -1.21,0.58 -1,-0.4 0.17,-0.75 -0.36,-1.39 -1.19,-1.42 -0.83,-0.02 -1.5,-0.94 -1.5,-2.04 0,-1.1 -0.44,-1.89 -0.97,-1.75 -0.54,0.14 -0.97,1.15 -0.97,2.25 0,1.1 0.27,1.89 0.61,1.75 1,-0.41 4.77,3.39 4.54,4.57 -0.12,0.6 0.46,1.15 1.29,1.23 2.98,0.29 3.23,0.47 2.31,1.7 -0.81,1.09 -0.92,2.19 -0.43,4.29 0.06,0.29 0.92,0.1 1.9,-0.42 1.3,-0.7 2.45,-0.45 4.22,0.88 z m 65.74,5.34 c 0.83,1.43 2.55,-1.1 2.76,-4.04 0.21,-3.19 -1.22,-5.59 -2.77,-4.63 -0.6,0.37 -0.74,0.16 -0.34,-0.49 0.87,-1.41 -1.17,-5.44 -2.37,-4.69 -0.49,0.3 -0.67,1.73 -0.4,3.19 0.41,2.29 0.27,2.47 -1.06,1.37 -0.84,-0.7 -2.33,-0.97 -3.3,-0.59 -1.68,0.65 -1.68,0.74 0,1.98 0.97,0.71 3.22,1.14 5,0.95 2.62,-0.27 2.9,-0.14 1.47,0.7 -0.98,0.57 -1.51,1.46 -1.18,1.99 0.32,0.52 0.97,0.72 1.43,0.43 0.47,-0.29 0.72,0.27 0.56,1.24 -0.15,0.96 -0.06,2.13 0.2,2.59 z m -97.22,-30.31 c 0.46,0.74 1.42,0.34 2.84,-1.18 2.09,-2.24 2.15,-3.69 0.14,-3.02 -0.55,0.19 -0.68,0.01 -0.29,-0.38 0.4,-0.39 0.3,-1.49 -0.2,-2.44 -0.68,-1.25 -2.03,-1.67 -4.97,-1.53 -2.22,0.1 -4.31,0.46 -4.64,0.79 -1.02,1.02 0.67,2.81 1.92,2.03 3.63,-2.27 8.15,0.22 5.72,3.16 -0.67,0.8 -0.9,1.96 -0.52,2.57 z m -22.97,-13.94 c 0.32,0.52 1.01,0.68 1.54,0.36 0.52,-0.32 0.7,-0.98 0.41,-1.45 -0.29,-0.47 -0.09,-1.13 0.44,-1.46 0.53,-0.33 0.71,-1.38 0.38,-2.32 -0.49,-1.43 -0.34,-1.39 0.89,0.18 0.87,1.12 1.99,1.59 2.7,1.15 1.85,-1.14 -1.46,-4.33 -4.19,-4.04 -1.72,0.18 -2.44,0.26 -2.56,0.57 -0.09,0.22 0.12,0.56 0.49,1.15 l 0.01,0.02 c 1.18,1.88 1.27,3.67 0.23,4.32 -0.51,0.31 -0.66,0.99 -0.34,1.52 z m 105.97,34.95 c 0.61,0.99 4.33,0.05 7.22,-1.81 2.73,-1.77 2.27,-2.84 -1.15,-2.69 -2.71,0.12 -6.87,3.2 -6.07,4.5 z m 171.03,-71.58 c 1.8,1.36 1.54,1.48 -3.3,1.51 -4.98,0.03 -5.25,-0.1 -5.25,-2.54 0,-2.36 0.13,-2.44 1.61,-0.97 0.88,0.89 2.36,1.37 3.3,1.07 0.93,-0.3 2.57,0.12 3.64,0.93 z M 482.51,756.02 c 1.13,1.83 2.05,0.2 1.96,-3.45 -0.05,-1.97 -0.51,-3.53 -1.03,-3.47 -0.52,0.05 -0.8,0.58 -0.63,1.17 0.18,0.64 -0.28,0.59 -1.16,-0.15 -1.15,-0.95 -1.64,-0.95 -2.22,-0.01 -0.44,0.72 0.17,1.96 1.52,3.05 1.25,1.01 1.97,1.84 1.6,1.84 -0.37,0 -0.39,0.46 -0.04,1.02 z M 364.74,688.34 c 0.77,1.32 2.49,-0.96 2.79,-3.7 0.33,-2.96 -2.87,-6.52 -4.08,-4.55 -0.43,0.68 -0.1,1.69 0.75,2.31 0.98,0.72 1.25,1.79 0.78,3.1 -0.4,1.1 -0.51,2.38 -0.24,2.84 z m -7.02,-8.95 c 0.98,0.98 2.82,0.03 2.52,-1.31 -0.18,-0.79 0.3,-0.89 1.5,-0.31 0.97,0.48 2.32,0.83 3.01,0.8 1.45,-0.08 1.24,-1.92 -0.25,-2.24 -0.55,-0.12 -2.01,-0.44 -3.25,-0.71 -2.25,-0.5 -4.93,2.36 -3.53,3.77 z m 96.91,28.76 c 1.62,1.78 3.95,1.59 2.82,-0.24 -0.32,-0.52 -1.12,-0.62 -1.77,-0.23 -0.87,0.52 -0.9,0.32 -0.12,-0.74 0.59,-0.79 1.04,-2.11 1,-2.94 -0.07,-1.76 -2.05,-2.06 -2.07,-0.32 -0.01,0.65 -0.35,1.51 -0.75,1.92 -0.41,0.4 -0.01,1.55 0.89,2.55 z M 336.54,659.07 c 0.35,0.57 1.35,0.53 2.53,-0.11 1.58,-0.84 1.75,-1.42 0.89,-3.03 -0.58,-1.09 -1.5,-1.72 -2.03,-1.39 -0.53,0.33 -0.72,0.99 -0.43,1.46 0.29,0.47 0.07,1.15 -0.5,1.5 -0.57,0.35 -0.77,1.06 -0.46,1.57 z m 102.98,-80.05 c 1.17,1.29 2.18,1.68 2.79,1.07 1.45,-1.45 0.05,-3.98 -2,-3.59 -0.99,0.19 -1.99,0.38 -2.21,0.42 -0.23,0.05 0.41,0.99 1.42,2.1 z m 38.44,166.43 c 1.41,1.7 3.04,1.19 3.04,-0.95 0,-1.94 -1.96,-2.94 -3.24,-1.66 -0.77,0.77 -0.71,1.52 0.2,2.61 z M 331.6,652.16 c 0.34,0.55 1.15,0.46 1.98,-0.22 0.77,-0.64 1.17,-1.53 0.89,-1.98 -0.28,-0.45 -0.04,-1.11 0.53,-1.46 0.57,-0.35 0.77,-1.06 0.45,-1.59 -0.32,-0.52 -1.01,-0.68 -1.54,-0.36 -0.52,0.32 -0.72,0.96 -0.44,1.41 0.28,0.45 -0.16,1.37 -0.97,2.04 -0.81,0.67 -1.22,1.65 -0.9,2.16 z m 83.9,-106.54 c 0.99,0.72 2.25,1.04 2.8,0.7 0.59,-0.37 0.26,-1.17 -0.8,-1.94 -0.99,-0.72 -2.25,-1.04 -2.8,-0.7 -0.59,0.37 -0.26,1.17 0.8,1.94 z m 26.04,141.45 c 0.32,0.51 0.97,0.93 1.46,0.93 1.4,0 2.13,-1.8 1.02,-2.49 -1.34,-0.82 -3.22,0.36 -2.48,1.56 z m 3,2 c 0.32,0.51 0.97,0.93 1.46,0.93 1.4,0 2.13,-1.8 1.02,-2.49 -1.34,-0.82 -3.22,0.36 -2.48,1.56 z m 36.06,-97.91 c 0.34,0.55 1.15,0.46 1.98,-0.22 0.77,-0.64 1.14,-1.59 0.82,-2.1 -0.34,-0.55 -1.15,-0.46 -1.98,0.22 -0.77,0.64 -1.14,1.59 -0.82,2.1 z m -25,4 c 0.34,0.55 1.15,0.46 1.98,-0.22 0.77,-0.64 1.14,-1.59 0.82,-2.1 -0.34,-0.55 -1.15,-0.46 -1.98,0.22 -0.77,0.64 -1.14,1.59 -0.82,2.1 z m -126.54,46.42 c 0.64,0.77 1.59,1.14 2.1,0.82 0.55,-0.34 0.46,-1.15 -0.22,-1.98 -0.64,-0.77 -1.59,-1.14 -2.1,-0.82 -0.55,0.34 -0.46,1.15 0.22,1.98 z m -14.46,8.58 c 0.34,0.55 1.15,0.46 1.98,-0.22 0.77,-0.64 1.14,-1.59 0.82,-2.1 -0.34,-0.55 -1.15,-0.46 -1.98,0.22 -0.77,0.64 -1.14,1.59 -0.82,2.1 z M 627,624.38 c 0,0.89 -0.67,1.62 -1.5,1.62 -0.83,0 -1.5,-0.17 -1.5,-0.38 0,-0.21 0.67,-0.94 1.5,-1.62 1.23,-1.02 1.5,-0.95 1.5,0.38 z M 447.55,574.09 c 0.32,0.52 1.01,0.68 1.54,0.36 0.52,-0.32 0.68,-1.01 0.36,-1.54 -0.32,-0.52 -1.01,-0.68 -1.54,-0.36 -0.52,0.32 -0.68,1.01 -0.36,1.54 z m -101,91 c 0.32,0.52 1.01,0.68 1.54,0.36 0.52,-0.32 0.68,-1.01 0.36,-1.54 -0.32,-0.52 -1.01,-0.68 -1.54,-0.36 -0.52,0.32 -0.68,1.01 -0.36,1.54 z m 94,25 c 0.32,0.52 1.01,0.68 1.54,0.36 0.52,-0.32 0.68,-1.01 0.36,-1.54 -0.32,-0.52 -1.01,-0.68 -1.54,-0.36 -0.52,0.32 -0.68,1.01 -0.36,1.54 z m 15,23 c 0.32,0.52 1.01,0.68 1.54,0.36 0.52,-0.32 0.68,-1.01 0.36,-1.54 -0.32,-0.52 -1.01,-0.68 -1.54,-0.36 -0.52,0.32 -0.68,1.01 -0.36,1.54 z"
     fill="#1a2661"
     id="path1" />
  <path
     d="m 579.3,485.5 c -6.47,7.8 -7.81,8.92 -8.05,6.69 -1.03,-9.62 -6.81,-23.36 -13.01,-30.94 -1.92,-2.34 -3.17,-4.25 -2.79,-4.25 1.23,0 -10.75,-10.08 -13.45,-11.32 -0.83,-0.38 -3.3,-1.82 -5.5,-3.19 -5.08,-3.17 -10.43,-5.62 -13,-5.97 -1.1,-0.14 -2,-0.36 -2,-0.47 0,-0.11 -0.67,-0.38 -1.5,-0.59 -0.83,-0.21 -3.3,-0.84 -5.5,-1.4 -2.2,-0.56 -6.62,-1.02 -9.82,-1.04 l -5.83,-0.02 2.17,-2.75 c 2.34,-2.98 27.01,-30.65 38.72,-43.41 3.98,-4.35 9.38,-10.47 12,-13.62 2.62,-3.15 5.66,-6.64 6.76,-7.76 1.1,-1.12 5.38,-5.84 9.5,-10.49 4.12,-4.65 10.44,-11.6 14.04,-15.46 6.24,-6.7 10.05,-10.98 28.78,-32.36 l 8.33,-9.5 -13.45,-13.07 c -7.4,-7.2 -14.4,-13.86 -15.57,-14.82 -1.17,-0.96 -2.13,-2.19 -2.13,-2.75 0,-0.67 22.08,-1.01 65.5,-1.01 H 719 v 62.88 c 0,34.58 0.28,64.28 0.62,66 0.37,1.82 0.22,3.12 -0.37,3.12 -0.54,0 -7.91,-7.65 -16.37,-17 -8.45,-9.35 -15.6,-16.99 -15.88,-16.99 -0.27,0.01 -4.1,4.13 -8.5,9.15 -13.66,15.61 -18.62,21.2 -22.47,25.34 -2.04,2.2 -7.88,8.73 -12.98,14.5 -5.1,5.77 -10.49,11.85 -11.97,13.5 -1.48,1.65 -9.37,10.65 -17.52,20 -8.15,9.35 -18.08,20.6 -22.05,25 -3.98,4.4 -9.47,10.7 -12.21,14 z m -71.73,65.02 c -14.53,3.79 -29.41,0.2 -40.13,-9.68 -6.82,-6.29 -9.53,-11.71 -12.42,-24.84 -2.29,-10.38 2.85,-26.27 11.32,-34.99 4.72,-4.86 13.91,-10.46 18.72,-11.4 7.53,-1.49 15.32,-1.81 18.79,-0.79 2.01,0.6 4.77,1.31 6.15,1.59 1.38,0.28 5.87,2.76 9.99,5.51 5.97,3.99 8.26,6.28 11.29,11.29 2.09,3.46 4.03,7.41 4.31,8.79 0.27,1.38 0.93,4.13 1.46,6.12 2.94,11.14 -2.28,28.69 -11.41,38.33 -4.16,4.39 -11.1,8.26 -18.07,10.07 z m 168.69,8.78 0.27,66.79 -14.76,-0.29 -14.76,-0.3 -0.07,-9 c -0.06,-8.45 -0.04,-88.34 0.03,-115.25 L 647,489 h 14.5 c 13.15,0 14.5,0.16 14.49,1.75 -0.01,0.96 0.11,31.81 0.27,68.55 z m -69.71,65.16 c -1.07,-0.81 -2.71,-1.23 -3.64,-0.93 -0.94,0.3 -2.42,-0.18 -3.3,-1.07 -0.7,-0.7 -1.1,-1.05 -1.33,-0.97 0.1,-1.44 0.02,-2.49 -0.23,-2.49 -0.45,0 -0.55,-49.42 -0.15,-72.22 l 0.1,-5.72 13.92,0.22 c 7.65,0.12 14.22,0.52 14.59,0.9 0.37,0.37 0.82,18.27 1.01,39.77 0.3,36.11 0.2,39.08 -1.35,38.83 -0.94,-0.16 -1.67,0.37 -1.67,1.22 0,0.83 0.56,1.39 1.25,1.25 0.25,-0.05 0.48,-0.01 0.67,0.1 -0.22,0.1 -0.52,0.32 -0.92,0.65 -0.83,0.68 -1.5,1.41 -1.5,1.62 0,0.05 0.03,0.09 0.08,0.13 -2.14,0.2 -5.75,0.25 -11.69,0.25 h -14.61 l 0.23,-1.96 c 0.08,1.85 0.71,1.96 5.24,1.93 4.84,-0.03 5.1,-0.15 3.3,-1.51 z M 333.22,555.74 c -11.93,6.63 -24.25,3.44 -29.97,-7.76 -6.2,-12.14 0.72,-27.04 13.94,-30 9.54,-2.13 18.31,2.21 22.99,11.37 4.09,8.02 0.31,22.34 -6.96,26.39 z m 246.18,56.69 -0.31,14.07 H 567.8 c -17.64,0 -18.57,-0.16 -19.25,-3.31 -0.32,-1.48 -0.35,-8.58 -0.07,-15.78 0.29,-7.2 0.52,-13.61 0.52,-14.25 0,-0.83 4.25,-1.16 14.89,-1.16 h 14.88 l 0.47,3.18 c 0.26,1.75 0.33,9.52 0.16,17.25 z M 685.42,458.61 c -9.67,9.21 -25.42,3.45 -25.42,-9.3 0,-2.41 0.88,-6.11 1.95,-8.21 4.69,-9.19 19.62,-9.5 25.5,-0.54 1.16,1.78 1.59,4.36 1.44,8.73 -0.18,5.58 -0.54,6.53 -3.47,9.32 z m -118.03,-7.64 c 1.2,0.46 2.64,0.37 3.35,-0.2 1.52,-1.23 0.69,-2.87 -1.11,-2.18 -0.72,0.28 -1.88,-0.19 -2.58,-1.03 -0.7,-0.85 -1.66,-1.3 -2.12,-1.02 -1.35,0.84 0.16,3.56 2.46,4.43 z m -14.82,-18.86 c 0.35,0.56 0.85,0.81 1.11,0.54 0.69,-0.69 0.45,-1.63 -0.43,-1.74 -0.41,-0.04 -1.29,-0.53 -1.96,-1.08 -0.66,-0.55 -1.68,-0.71 -2.26,-0.35 -1.48,0.92 -0.13,2.77 1.54,2.13 0.75,-0.29 1.65,-0.06 2,0.5 z M 627,624.5 c 0,0.1 -0.01,0.2 -0.05,0.28 0.03,-0.11 0.04,-0.22 0.05,-0.34 0,0.02 0,0.04 0,0.06 z"
     fill="#53b2d4"
     id="path2" />
  <path
     d="m 553.58,371.03 c 1.54,-1.9 2.42,-3.12 2.42,-3.4 0,-0.35 -48.89,-0.63 -108.65,-0.62 -59.76,0.01 -108.85,-0.18 -109.09,-0.42 -0.24,-0.24 2.64,-2.69 6.4,-5.45 14.96,-10.96 21.56,-25.3 21.72,-47.14 0.07,-10.29 -0.2,-12.15 -2.54,-17.66 -5.51,-12.93 -13.36,-22.65 -23.46,-29.03 -1.46,-0.92 40.79,-1.2 188.37,-1.25 l 102.89,-0.03 c -28.96,0.11 -43.64,0.43 -43.64,0.98 0,0.56 0.96,1.79 2.13,2.75 1.17,0.96 8.17,7.62 15.57,14.82 l 13.45,13.07 -8.33,9.5 c -18.73,21.38 -22.54,25.66 -28.78,32.36 -3.6,3.86 -9.92,10.81 -14.04,15.46 -4.12,4.65 -8.4,9.37 -9.5,10.49 -0.85,0.87 -2.85,3.14 -4.92,5.57 z m -39.81,198.38 c -13.7,4.48 -37.94,0.82 -51.59,-7.79 -9.1,-5.75 -20.16,-19.66 -23.78,-29.9 -5.4,-15.3 -3.11,-36.93 5.57,-52.6 8.19,-14.81 18.42,-22.2 40.14,-29.01 3.94,-1.24 18.19,-1.78 21.39,-0.81 1.1,0.33 4.02,0.88 6.5,1.22 2.47,0.34 5.5,1.26 6.71,2.05 1.22,0.79 2.86,1.43 3.64,1.43 1.97,0 11.27,6.41 16.49,11.37 5.82,5.52 14.9,19.16 15.74,23.63 0.05,0.27 0.35,1.17 0.67,2 4.31,11.26 3.54,29.78 -1.78,42.89 -2.62,6.43 -6.86,13.82 -8.98,15.61 -0.65,0.55 -2.18,2.46 -3.4,4.25 -1.23,1.79 -2.68,3.25 -3.22,3.25 -0.55,0 -2.44,1.08 -4.19,2.39 -3.99,2.99 -14.29,8.18 -19.91,10.02 z m 144.59,187 c -5.93,2.04 -18.26,2.83 -24.36,1.57 -9.46,-1.96 -29.18,-14.26 -27.42,-17.1 0.3,-0.49 -0.16,-1.16 -1.02,-1.49 -0.86,-0.33 -1.56,-1.18 -1.56,-1.87 0,-0.7 -0.71,-1.87 -1.58,-2.59 -0.95,-0.78 -1.4,-2.27 -1.12,-3.7 0.26,-1.38 -0.08,-2.59 -0.82,-2.88 -3.19,-1.22 -4.75,-19.1 -2.52,-28.85 4.09,-17.85 19.27,-32.25 37.54,-35.6 9.71,-1.79 22.32,0.34 30.5,5.14 9.87,5.8 15.94,12.37 20.29,21.96 5.62,12.38 5.53,29.12 -0.23,40.72 -5.72,11.53 -15.96,20.65 -27.7,24.69 z M 373,477.59 c -4.4,1.36 -20.98,1.83 -24,0.68 -0.83,-0.31 -1.84,-1.13 -2.25,-1.82 -0.41,-0.7 -1.59,-1.04 -2.62,-0.77 -5.51,1.44 -20.65,-11.82 -25.9,-22.68 -1.82,-3.77 -3.58,-9.52 -4.19,-13.69 -1.36,-9.39 -1.32,-10.45 0.39,-10.1 0.79,0.16 1.47,-0.16 1.5,-0.71 0.04,-0.55 -0.38,-1.06 -0.93,-1.12 -0.55,-0.07 -1.19,-0.19 -1.41,-0.26 -0.23,-0.06 0.23,-2.89 1.02,-6.28 1.92,-8.21 6.48,-16.51 12.37,-22.53 4.7,-4.8 14.73,-10.98 19.27,-11.86 14.69,-2.87 17.85,-2.85 28.42,0.17 5.35,1.53 14.83,7.24 19.53,11.76 7.29,7.04 12.81,21.34 12.79,33.19 -0.04,21.5 -13.48,39.71 -33.99,46.02 z m 134.57,72.93 c 6.97,-1.81 13.91,-5.68 18.07,-10.07 9.13,-9.64 14.35,-27.19 11.41,-38.33 -0.53,-1.99 -1.19,-4.74 -1.46,-6.12 -0.28,-1.38 -2.22,-5.33 -4.31,-8.79 -3.03,-5.01 -5.32,-7.3 -11.29,-11.29 -4.12,-2.75 -8.61,-5.23 -9.99,-5.51 -1.38,-0.28 -4.14,-0.99 -6.15,-1.59 -3.47,-1.02 -11.26,-0.7 -18.79,0.79 -4.81,0.94 -14,6.54 -18.72,11.4 -8.47,8.72 -13.61,24.61 -11.32,34.99 2.89,13.13 5.6,18.55 12.42,24.84 10.72,9.88 25.6,13.47 40.13,9.68 z m 104.98,196.57 c 0.32,0.52 1.12,0.6 1.77,0.19 0.65,-0.41 1.52,-0.81 1.93,-0.89 0.41,-0.08 1,-0.2 1.31,-0.27 0.31,-0.06 0.27,-0.59 -0.09,-1.17 -0.44,-0.72 -1.09,-0.68 -2.06,0.12 -0.78,0.65 -1.41,0.87 -1.41,0.49 0,-0.37 -0.46,-0.4 -1.02,-0.05 -0.56,0.35 -0.75,1.05 -0.43,1.58 z M 604.62,296.2 c 0.32,0.51 1.42,0.17 2.46,-0.77 1.03,-0.93 1.61,-2.12 1.3,-2.63 -0.32,-0.51 -1.42,-0.17 -2.46,0.77 -1.03,0.93 -1.61,2.12 -1.3,2.63 z M 355.5,475 c 0.48,0.78 1.06,0.84 1.73,0.17 0.55,-0.55 0.67,-1.52 0.27,-2.17 -0.48,-0.78 -1.06,-0.84 -1.73,-0.17 -0.55,0.55 -0.67,1.52 -0.27,2.17 z m 22.05,-0.91 c 0.32,0.52 1.01,0.68 1.54,0.36 0.52,-0.32 0.68,-1.01 0.36,-1.54 -0.32,-0.52 -1.01,-0.68 -1.54,-0.36 -0.52,0.32 -0.68,1.01 -0.36,1.54 z m 223,253 c 0.32,0.52 1.01,0.68 1.54,0.36 0.52,-0.32 0.68,-1.01 0.36,-1.54 -0.32,-0.52 -1.01,-0.68 -1.54,-0.36 -0.52,0.32 -0.68,1.01 -0.36,1.54 z M 539.74,386.84 c -5.99,6.53 -15.37,16.95 -23.42,25.98 7.92,-8.87 17.12,-19.12 23.18,-25.74 1.91,-2.09 3.73,-4.1 5.41,-5.99 -1.77,2 -3.59,4.02 -5.17,5.75 z"
     fill="#e2af58"
     id="path3" />
</svg>
